<svg width="24" height="24" viewBox="0 0 24 24" fill="none" xmlns="http://www.w3.org/2000/svg">
<path fill-rule="evenodd" clip-rule="evenodd" d="M12 22C17.5228 22 22 17.5228 22 12C22 6.47715 17.5228 2 12 2C6.47715 2 2 6.47715 2 12C2 17.5228 6.47715 22 12 22Z" stroke="#383739" stroke-width="2" stroke-linecap="round" stroke-linejoin="round"/>
<path d="M2.15039 10.2609H7.44083C8.13281 10.2606 8.79658 10.5352 9.28604 11.0244L10.2608 11.9991C11.2379 12.9759 11.284 14.5449 10.366 15.5774L9.18083 16.9104C8.75631 17.3879 8.52177 18.0046 8.5217 18.6435V21.3783" stroke="#383739" stroke-width="2" stroke-linecap="round" stroke-linejoin="round"/>
<path d="M19.1835 5.04348H14.14C13.0594 5.04348 12.1835 5.91944 12.1835 7C12.1835 8.08056 13.0594 8.95652 14.14 8.95652H14.5156C15.3889 8.95523 16.2049 9.39097 16.6896 10.1174L18.6183 13.0122C19.1027 13.7389 19.9187 14.175 20.7922 14.1739H21.7669" stroke="#383739" stroke-width="2" stroke-linecap="round" stroke-linejoin="round"/>
</svg>
