<svg width="808" height="34" viewBox="0 0 808 34" fill="none" xmlns="http://www.w3.org/2000/svg">
<path d="M7.66406 19V10.6396H4.63574V9.13574H12.4834V10.6396H9.45508V19H7.66406ZM14.8555 19.123C14.3815 19.123 13.96 19.0319 13.5908 18.8496C13.2217 18.6673 12.93 18.4076 12.7158 18.0703C12.5062 17.7331 12.4014 17.3389 12.4014 16.8877V16.874C12.4014 16.4274 12.5107 16.0446 12.7295 15.7256C12.9482 15.4066 13.2695 15.1559 13.6934 14.9736C14.1172 14.7913 14.6322 14.682 15.2383 14.6455L18.0068 14.4814V15.6094L15.4844 15.7666C15.015 15.7939 14.6663 15.8942 14.4385 16.0674C14.2152 16.2406 14.1035 16.4798 14.1035 16.7852V16.7988C14.1035 17.1133 14.222 17.3594 14.459 17.5371C14.7005 17.7148 15.0081 17.8037 15.3818 17.8037C15.7236 17.8037 16.0267 17.7376 16.291 17.6055C16.5599 17.4688 16.7695 17.2842 16.9199 17.0518C17.0749 16.8148 17.1523 16.5505 17.1523 16.2588V13.8936C17.1523 13.5244 17.0339 13.2419 16.7969 13.0459C16.5645 12.8454 16.2204 12.7451 15.7646 12.7451C15.3773 12.7451 15.0605 12.8135 14.8145 12.9502C14.5684 13.0824 14.4043 13.2692 14.3223 13.5107L14.3086 13.5381H12.6816L12.6885 13.4834C12.7477 13.0596 12.9141 12.6904 13.1875 12.376C13.4609 12.0615 13.8232 11.8177 14.2744 11.6445C14.7301 11.4668 15.2542 11.3779 15.8467 11.3779C16.4938 11.3779 17.0407 11.4782 17.4873 11.6787C17.9385 11.8747 18.2803 12.1618 18.5127 12.54C18.7451 12.9137 18.8613 13.3649 18.8613 13.8936V19H17.1523V17.9746H17.0361C16.8994 18.2161 16.724 18.4235 16.5098 18.5967C16.2956 18.7653 16.0472 18.8952 15.7646 18.9863C15.4867 19.0775 15.1836 19.123 14.8555 19.123ZM25.0752 19.123C24.7243 19.123 24.403 19.0729 24.1113 18.9727C23.8197 18.8678 23.5622 18.7197 23.3389 18.5283C23.1201 18.3324 22.9424 18.0999 22.8057 17.8311H22.6895V19H20.96V8.62988H22.6895V12.7178H22.8057C22.9378 12.4443 23.1156 12.2119 23.3389 12.0205C23.5622 11.8245 23.8219 11.6742 24.1182 11.5693C24.4144 11.46 24.7334 11.4053 25.0752 11.4053C25.7087 11.4053 26.2533 11.5602 26.709 11.8701C27.1693 12.18 27.5225 12.6243 27.7686 13.2031C28.0192 13.7773 28.1445 14.4609 28.1445 15.2539V15.2676C28.1445 16.056 28.0192 16.7396 27.7686 17.3184C27.5179 17.8971 27.1624 18.3438 26.7021 18.6582C26.2464 18.9681 25.7041 19.123 25.0752 19.123ZM24.5283 17.667C24.9157 17.667 25.2461 17.5713 25.5195 17.3799C25.7975 17.1885 26.0094 16.9128 26.1553 16.5527C26.3057 16.1927 26.3809 15.7643 26.3809 15.2676V15.2539C26.3809 14.7572 26.3057 14.3311 26.1553 13.9756C26.0094 13.6156 25.7975 13.3398 25.5195 13.1484C25.2461 12.9525 24.9157 12.8545 24.5283 12.8545C24.1501 12.8545 23.8197 12.9525 23.5371 13.1484C23.2591 13.3398 23.0449 13.6156 22.8945 13.9756C22.7441 14.3311 22.6689 14.7594 22.6689 15.2607V15.2744C22.6689 15.7666 22.7441 16.1927 22.8945 16.5527C23.0449 16.9128 23.2591 17.1885 23.5371 17.3799C23.8151 17.5713 24.1455 17.667 24.5283 17.667ZM33.6338 19V8.62988H35.3633V19H33.6338ZM39.5469 19.123C39.0729 19.123 38.6514 19.0319 38.2822 18.8496C37.9131 18.6673 37.6214 18.4076 37.4072 18.0703C37.1976 17.7331 37.0928 17.3389 37.0928 16.8877V16.874C37.0928 16.4274 37.2021 16.0446 37.4209 15.7256C37.6396 15.4066 37.9609 15.1559 38.3848 14.9736C38.8086 14.7913 39.3236 14.682 39.9297 14.6455L42.6982 14.4814V15.6094L40.1758 15.7666C39.7064 15.7939 39.3577 15.8942 39.1299 16.0674C38.9066 16.2406 38.7949 16.4798 38.7949 16.7852V16.7988C38.7949 17.1133 38.9134 17.3594 39.1504 17.5371C39.3919 17.7148 39.6995 17.8037 40.0732 17.8037C40.415 17.8037 40.7181 17.7376 40.9824 17.6055C41.2513 17.4688 41.4609 17.2842 41.6113 17.0518C41.7663 16.8148 41.8438 16.5505 41.8438 16.2588V13.8936C41.8438 13.5244 41.7253 13.2419 41.4883 13.0459C41.2559 12.8454 40.9118 12.7451 40.4561 12.7451C40.0687 12.7451 39.752 12.8135 39.5059 12.9502C39.2598 13.0824 39.0957 13.2692 39.0137 13.5107L39 13.5381H37.373L37.3799 13.4834C37.4391 13.0596 37.6055 12.6904 37.8789 12.376C38.1523 12.0615 38.5146 11.8177 38.9658 11.6445C39.4215 11.4668 39.9456 11.3779 40.5381 11.3779C41.1852 11.3779 41.7321 11.4782 42.1787 11.6787C42.6299 11.8747 42.9717 12.1618 43.2041 12.54C43.4365 12.9137 43.5527 13.3649 43.5527 13.8936V19H41.8438V17.9746H41.7275C41.5908 18.2161 41.4154 18.4235 41.2012 18.5967C40.987 18.7653 40.7386 18.8952 40.4561 18.9863C40.1781 19.0775 39.875 19.123 39.5469 19.123ZM49.7666 19.123C49.4157 19.123 49.0944 19.0729 48.8027 18.9727C48.5111 18.8678 48.2536 18.7197 48.0303 18.5283C47.8115 18.3324 47.6338 18.0999 47.4971 17.8311H47.3809V19H45.6514V8.62988H47.3809V12.7178H47.4971C47.6292 12.4443 47.807 12.2119 48.0303 12.0205C48.2536 11.8245 48.5133 11.6742 48.8096 11.5693C49.1058 11.46 49.4248 11.4053 49.7666 11.4053C50.4001 11.4053 50.9447 11.5602 51.4004 11.8701C51.8607 12.18 52.2139 12.6243 52.46 13.2031C52.7106 13.7773 52.8359 14.4609 52.8359 15.2539V15.2676C52.8359 16.056 52.7106 16.7396 52.46 17.3184C52.2093 17.8971 51.8538 18.3438 51.3936 18.6582C50.9378 18.9681 50.3955 19.123 49.7666 19.123ZM49.2197 17.667C49.6071 17.667 49.9375 17.5713 50.2109 17.3799C50.4889 17.1885 50.7008 16.9128 50.8467 16.5527C50.9971 16.1927 51.0723 15.7643 51.0723 15.2676V15.2539C51.0723 14.7572 50.9971 14.3311 50.8467 13.9756C50.7008 13.6156 50.4889 13.3398 50.2109 13.1484C49.9375 12.9525 49.6071 12.8545 49.2197 12.8545C48.8415 12.8545 48.5111 12.9525 48.2285 13.1484C47.9505 13.3398 47.7363 13.6156 47.5859 13.9756C47.4355 14.3311 47.3604 14.7594 47.3604 15.2607V15.2744C47.3604 15.7666 47.4355 16.1927 47.5859 16.5527C47.7363 16.9128 47.9505 17.1885 48.2285 17.3799C48.5065 17.5713 48.8369 17.667 49.2197 17.667ZM57.751 19.1504C57.0081 19.1504 56.3678 18.9932 55.8301 18.6787C55.2969 18.3643 54.8867 17.9176 54.5996 17.3389C54.3125 16.7601 54.1689 16.0742 54.1689 15.2812V15.2744C54.1689 14.486 54.3125 13.8001 54.5996 13.2168C54.8867 12.6335 55.2923 12.1823 55.8164 11.8633C56.3405 11.5397 56.958 11.3779 57.6689 11.3779C58.3799 11.3779 58.9928 11.5352 59.5078 11.8496C60.0228 12.1595 60.4193 12.5947 60.6973 13.1553C60.9753 13.7158 61.1143 14.3721 61.1143 15.124V15.6914H55.0371V14.543H60.2734L59.4531 15.623V14.9326C59.4531 14.4404 59.3779 14.0326 59.2275 13.709C59.0771 13.3809 58.8698 13.1348 58.6055 12.9707C58.3411 12.8066 58.0358 12.7246 57.6895 12.7246C57.3431 12.7246 57.0355 12.8089 56.7666 12.9775C56.4977 13.1462 56.2835 13.3968 56.124 13.7295C55.9691 14.0576 55.8916 14.4587 55.8916 14.9326V15.623C55.8916 16.0833 55.9668 16.4753 56.1172 16.7988C56.2721 17.1224 56.4909 17.3708 56.7734 17.5439C57.0605 17.7171 57.3978 17.8037 57.7852 17.8037C58.0905 17.8037 58.3525 17.7604 58.5713 17.6738C58.79 17.5827 58.9678 17.4756 59.1045 17.3525C59.2412 17.2249 59.3346 17.1064 59.3848 16.9971L59.4121 16.9492H61.0459L61.0322 17.0107C60.973 17.2523 60.8636 17.4984 60.7041 17.749C60.5446 17.9997 60.3327 18.2321 60.0684 18.4463C59.804 18.6559 59.4782 18.8268 59.0908 18.959C58.708 19.0866 58.2614 19.1504 57.751 19.1504ZM62.8779 19V8.62988H64.6074V19H62.8779Z" fill="#1A1A1A"/>
<path d="M15 34C15 32.8954 15.8954 32 17 32H53C54.1046 32 55 32.8954 55 34H15Z" fill="#1A1A1A"/>
<path d="M93.8213 19V10.2432H90.6426V9.13574H98.2305V10.2432H95.0518V19H93.8213ZM100.414 19.1299C99.9495 19.1299 99.5302 19.041 99.1565 18.8633C98.7874 18.6855 98.4935 18.4326 98.2747 18.1045C98.0605 17.7764 97.9534 17.389 97.9534 16.9424V16.9287C97.9534 16.4912 98.0582 16.1175 98.2679 15.8076C98.4775 15.4932 98.7828 15.2471 99.1839 15.0693C99.5849 14.8916 100.07 14.7868 100.64 14.7549L103.347 14.5908V15.541L100.784 15.7051C100.223 15.737 99.8128 15.8532 99.553 16.0537C99.2978 16.2542 99.1702 16.5368 99.1702 16.9014V16.915C99.1702 17.2887 99.3115 17.5804 99.594 17.79C99.8766 17.9951 100.232 18.0977 100.66 18.0977C101.066 18.0977 101.426 18.0179 101.741 17.8584C102.055 17.6943 102.301 17.4733 102.479 17.1953C102.661 16.9173 102.752 16.6029 102.752 16.252V13.9551C102.752 13.4993 102.613 13.153 102.335 12.916C102.062 12.6745 101.649 12.5537 101.098 12.5537C100.656 12.5537 100.294 12.6335 100.011 12.793C99.7285 12.9479 99.5394 13.1689 99.4437 13.4561L99.4368 13.4766H98.2474L98.2542 13.4355C98.318 13.0482 98.4775 12.7109 98.7327 12.4238C98.9925 12.1322 99.3274 11.9066 99.7376 11.7471C100.148 11.583 100.615 11.501 101.139 11.501C101.741 11.501 102.249 11.599 102.663 11.7949C103.083 11.9909 103.399 12.2734 103.614 12.6426C103.832 13.0072 103.942 13.4447 103.942 13.9551V19H102.752V17.9131H102.643C102.488 18.1729 102.299 18.3939 102.075 18.5762C101.857 18.7585 101.608 18.8975 101.33 18.9932C101.052 19.0843 100.747 19.1299 100.414 19.1299ZM109.626 19.1299C109.284 19.1299 108.967 19.0775 108.675 18.9727C108.384 18.8678 108.124 18.7197 107.896 18.5283C107.668 18.3324 107.479 18.0977 107.329 17.8242H107.219V19H106.03V8.70508H107.219V12.793H107.329C107.465 12.5286 107.648 12.3008 107.876 12.1094C108.108 11.918 108.372 11.7699 108.669 11.665C108.969 11.5557 109.288 11.501 109.626 11.501C110.25 11.501 110.792 11.6582 111.253 11.9727C111.717 12.2871 112.077 12.7292 112.333 13.2988C112.588 13.8685 112.715 14.5384 112.715 15.3086V15.3223C112.715 16.0879 112.588 16.7578 112.333 17.332C112.077 17.9017 111.717 18.3438 111.253 18.6582C110.792 18.9727 110.25 19.1299 109.626 19.1299ZM109.352 18.0771C109.803 18.0771 110.188 17.9678 110.507 17.749C110.826 17.5257 111.07 17.209 111.239 16.7988C111.412 16.3841 111.499 15.8919 111.499 15.3223V15.3086C111.499 14.7344 111.412 14.2422 111.239 13.832C111.07 13.4219 110.826 13.1074 110.507 12.8887C110.188 12.6654 109.803 12.5537 109.352 12.5537C108.906 12.5537 108.52 12.6654 108.197 12.8887C107.873 13.112 107.625 13.4287 107.452 13.8389C107.279 14.249 107.192 14.7389 107.192 15.3086V15.3223C107.192 15.8874 107.279 16.3773 107.452 16.792C107.625 17.2021 107.873 17.5189 108.197 17.7422C108.52 17.9655 108.906 18.0771 109.352 18.0771ZM118.259 19V8.70508H119.448V19H118.259ZM123.601 19.1299C123.136 19.1299 122.717 19.041 122.343 18.8633C121.974 18.6855 121.68 18.4326 121.461 18.1045C121.247 17.7764 121.14 17.389 121.14 16.9424V16.9287C121.14 16.4912 121.245 16.1175 121.455 15.8076C121.664 15.4932 121.97 15.2471 122.371 15.0693C122.772 14.8916 123.257 14.7868 123.827 14.7549L126.534 14.5908V15.541L123.97 15.7051C123.41 15.737 123 15.8532 122.74 16.0537C122.485 16.2542 122.357 16.5368 122.357 16.9014V16.915C122.357 17.2887 122.498 17.5804 122.781 17.79C123.063 17.9951 123.419 18.0977 123.847 18.0977C124.253 18.0977 124.613 18.0179 124.927 17.8584C125.242 17.6943 125.488 17.4733 125.666 17.1953C125.848 16.9173 125.939 16.6029 125.939 16.252V13.9551C125.939 13.4993 125.8 13.153 125.522 12.916C125.249 12.6745 124.836 12.5537 124.285 12.5537C123.843 12.5537 123.48 12.6335 123.198 12.793C122.915 12.9479 122.726 13.1689 122.63 13.4561L122.624 13.4766H121.434L121.441 13.4355C121.505 13.0482 121.664 12.7109 121.919 12.4238C122.179 12.1322 122.514 11.9066 122.924 11.7471C123.334 11.583 123.802 11.501 124.326 11.501C124.927 11.501 125.435 11.599 125.85 11.7949C126.269 11.9909 126.586 12.2734 126.8 12.6426C127.019 13.0072 127.128 13.4447 127.128 13.9551V19H125.939V17.9131H125.83C125.675 18.1729 125.486 18.3939 125.262 18.5762C125.043 18.7585 124.795 18.8975 124.517 18.9932C124.239 19.0843 123.934 19.1299 123.601 19.1299ZM132.812 19.1299C132.471 19.1299 132.154 19.0775 131.862 18.9727C131.57 18.8678 131.311 18.7197 131.083 18.5283C130.855 18.3324 130.666 18.0977 130.515 17.8242H130.406V19H129.217V8.70508H130.406V12.793H130.515C130.652 12.5286 130.834 12.3008 131.062 12.1094C131.295 11.918 131.559 11.7699 131.855 11.665C132.156 11.5557 132.475 11.501 132.812 11.501C133.437 11.501 133.979 11.6582 134.439 11.9727C134.904 12.2871 135.264 12.7292 135.519 13.2988C135.775 13.8685 135.902 14.5384 135.902 15.3086V15.3223C135.902 16.0879 135.775 16.7578 135.519 17.332C135.264 17.9017 134.904 18.3438 134.439 18.6582C133.979 18.9727 133.437 19.1299 132.812 19.1299ZM132.539 18.0771C132.99 18.0771 133.375 17.9678 133.694 17.749C134.013 17.5257 134.257 17.209 134.426 16.7988C134.599 16.3841 134.685 15.8919 134.685 15.3223V15.3086C134.685 14.7344 134.599 14.2422 134.426 13.832C134.257 13.4219 134.013 13.1074 133.694 12.8887C133.375 12.6654 132.99 12.5537 132.539 12.5537C132.092 12.5537 131.707 12.6654 131.384 12.8887C131.06 13.112 130.812 13.4287 130.639 13.8389C130.465 14.249 130.379 14.7389 130.379 15.3086V15.3223C130.379 15.8874 130.465 16.3773 130.639 16.792C130.812 17.2021 131.06 17.5189 131.384 17.7422C131.707 17.9655 132.092 18.0771 132.539 18.0771ZM140.602 19.1299C139.9 19.1299 139.296 18.9749 138.79 18.665C138.289 18.3551 137.901 17.9176 137.628 17.3525C137.359 16.7829 137.225 16.113 137.225 15.3428V15.3359C137.225 14.5749 137.359 13.9072 137.628 13.333C137.901 12.7588 138.287 12.3099 138.783 11.9863C139.28 11.6628 139.861 11.501 140.526 11.501C141.196 11.501 141.771 11.6559 142.249 11.9658C142.732 12.2757 143.101 12.7087 143.357 13.2646C143.616 13.8161 143.746 14.4587 143.746 15.1924V15.6572H137.84V14.707H143.138L142.55 15.5752V15.1035C142.55 14.5247 142.463 14.0485 142.29 13.6748C142.117 13.3011 141.878 13.0231 141.572 12.8408C141.267 12.654 140.916 12.5605 140.52 12.5605C140.123 12.5605 139.768 12.6585 139.453 12.8545C139.143 13.0459 138.897 13.3307 138.715 13.709C138.533 14.0872 138.442 14.5521 138.442 15.1035V15.5752C138.442 16.0993 138.53 16.5482 138.708 16.9219C138.886 17.291 139.139 17.5758 139.467 17.7764C139.795 17.9723 140.182 18.0703 140.629 18.0703C140.962 18.0703 141.251 18.0247 141.497 17.9336C141.743 17.8424 141.946 17.7262 142.106 17.585C142.265 17.4437 142.377 17.3001 142.441 17.1543L142.468 17.0928H143.657L143.644 17.1475C143.58 17.3981 143.466 17.6419 143.302 17.8789C143.142 18.1113 142.935 18.3232 142.68 18.5146C142.425 18.7015 142.122 18.8519 141.771 18.9658C141.424 19.0752 141.035 19.1299 140.602 19.1299ZM145.506 19V8.70508H146.696V19H145.506Z" fill="#474747"/>
<path d="M175.821 19V10.2432H172.643V9.13574H180.23V10.2432H177.052V19H175.821ZM182.414 19.1299C181.95 19.1299 181.53 19.041 181.157 18.8633C180.787 18.6855 180.493 18.4326 180.275 18.1045C180.061 17.7764 179.953 17.389 179.953 16.9424V16.9287C179.953 16.4912 180.058 16.1175 180.268 15.8076C180.478 15.4932 180.783 15.2471 181.184 15.0693C181.585 14.8916 182.07 14.7868 182.64 14.7549L185.347 14.5908V15.541L182.784 15.7051C182.223 15.737 181.813 15.8532 181.553 16.0537C181.298 16.2542 181.17 16.5368 181.17 16.9014V16.915C181.17 17.2887 181.311 17.5804 181.594 17.79C181.877 17.9951 182.232 18.0977 182.66 18.0977C183.066 18.0977 183.426 18.0179 183.741 17.8584C184.055 17.6943 184.301 17.4733 184.479 17.1953C184.661 16.9173 184.752 16.6029 184.752 16.252V13.9551C184.752 13.4993 184.613 13.153 184.335 12.916C184.062 12.6745 183.649 12.5537 183.098 12.5537C182.656 12.5537 182.294 12.6335 182.011 12.793C181.728 12.9479 181.539 13.1689 181.444 13.4561L181.437 13.4766H180.247L180.254 13.4355C180.318 13.0482 180.478 12.7109 180.733 12.4238C180.992 12.1322 181.327 11.9066 181.738 11.7471C182.148 11.583 182.615 11.501 183.139 11.501C183.741 11.501 184.249 11.599 184.663 11.7949C185.083 11.9909 185.399 12.2734 185.614 12.6426C185.832 13.0072 185.942 13.4447 185.942 13.9551V19H184.752V17.9131H184.643C184.488 18.1729 184.299 18.3939 184.075 18.5762C183.857 18.7585 183.608 18.8975 183.33 18.9932C183.052 19.0843 182.747 19.1299 182.414 19.1299ZM191.626 19.1299C191.284 19.1299 190.967 19.0775 190.675 18.9727C190.384 18.8678 190.124 18.7197 189.896 18.5283C189.668 18.3324 189.479 18.0977 189.329 17.8242H189.219V19H188.03V8.70508H189.219V12.793H189.329C189.465 12.5286 189.648 12.3008 189.876 12.1094C190.108 11.918 190.372 11.7699 190.669 11.665C190.969 11.5557 191.288 11.501 191.626 11.501C192.25 11.501 192.792 11.6582 193.253 11.9727C193.717 12.2871 194.077 12.7292 194.333 13.2988C194.588 13.8685 194.715 14.5384 194.715 15.3086V15.3223C194.715 16.0879 194.588 16.7578 194.333 17.332C194.077 17.9017 193.717 18.3438 193.253 18.6582C192.792 18.9727 192.25 19.1299 191.626 19.1299ZM191.352 18.0771C191.803 18.0771 192.188 17.9678 192.507 17.749C192.826 17.5257 193.07 17.209 193.239 16.7988C193.412 16.3841 193.499 15.8919 193.499 15.3223V15.3086C193.499 14.7344 193.412 14.2422 193.239 13.832C193.07 13.4219 192.826 13.1074 192.507 12.8887C192.188 12.6654 191.803 12.5537 191.352 12.5537C190.906 12.5537 190.52 12.6654 190.197 12.8887C189.873 13.112 189.625 13.4287 189.452 13.8389C189.279 14.249 189.192 14.7389 189.192 15.3086V15.3223C189.192 15.8874 189.279 16.3773 189.452 16.792C189.625 17.2021 189.873 17.5189 190.197 17.7422C190.52 17.9655 190.906 18.0771 191.352 18.0771ZM200.259 19V8.70508H201.448V19H200.259ZM205.601 19.1299C205.136 19.1299 204.717 19.041 204.343 18.8633C203.974 18.6855 203.68 18.4326 203.461 18.1045C203.247 17.7764 203.14 17.389 203.14 16.9424V16.9287C203.14 16.4912 203.245 16.1175 203.455 15.8076C203.664 15.4932 203.97 15.2471 204.371 15.0693C204.772 14.8916 205.257 14.7868 205.827 14.7549L208.534 14.5908V15.541L205.97 15.7051C205.41 15.737 205 15.8532 204.74 16.0537C204.485 16.2542 204.357 16.5368 204.357 16.9014V16.915C204.357 17.2887 204.498 17.5804 204.781 17.79C205.063 17.9951 205.419 18.0977 205.847 18.0977C206.253 18.0977 206.613 18.0179 206.927 17.8584C207.242 17.6943 207.488 17.4733 207.666 17.1953C207.848 16.9173 207.939 16.6029 207.939 16.252V13.9551C207.939 13.4993 207.8 13.153 207.522 12.916C207.249 12.6745 206.836 12.5537 206.285 12.5537C205.843 12.5537 205.48 12.6335 205.198 12.793C204.915 12.9479 204.726 13.1689 204.63 13.4561L204.624 13.4766H203.434L203.441 13.4355C203.505 13.0482 203.664 12.7109 203.919 12.4238C204.179 12.1322 204.514 11.9066 204.924 11.7471C205.334 11.583 205.802 11.501 206.326 11.501C206.927 11.501 207.435 11.599 207.85 11.7949C208.269 11.9909 208.586 12.2734 208.8 12.6426C209.019 13.0072 209.128 13.4447 209.128 13.9551V19H207.939V17.9131H207.83C207.675 18.1729 207.486 18.3939 207.262 18.5762C207.043 18.7585 206.795 18.8975 206.517 18.9932C206.239 19.0843 205.934 19.1299 205.601 19.1299ZM214.812 19.1299C214.471 19.1299 214.154 19.0775 213.862 18.9727C213.57 18.8678 213.311 18.7197 213.083 18.5283C212.855 18.3324 212.666 18.0977 212.515 17.8242H212.406V19H211.217V8.70508H212.406V12.793H212.515C212.652 12.5286 212.834 12.3008 213.062 12.1094C213.295 11.918 213.559 11.7699 213.855 11.665C214.156 11.5557 214.475 11.501 214.812 11.501C215.437 11.501 215.979 11.6582 216.439 11.9727C216.904 12.2871 217.264 12.7292 217.519 13.2988C217.775 13.8685 217.902 14.5384 217.902 15.3086V15.3223C217.902 16.0879 217.775 16.7578 217.519 17.332C217.264 17.9017 216.904 18.3438 216.439 18.6582C215.979 18.9727 215.437 19.1299 214.812 19.1299ZM214.539 18.0771C214.99 18.0771 215.375 17.9678 215.694 17.749C216.013 17.5257 216.257 17.209 216.426 16.7988C216.599 16.3841 216.685 15.8919 216.685 15.3223V15.3086C216.685 14.7344 216.599 14.2422 216.426 13.832C216.257 13.4219 216.013 13.1074 215.694 12.8887C215.375 12.6654 214.99 12.5537 214.539 12.5537C214.092 12.5537 213.707 12.6654 213.384 12.8887C213.06 13.112 212.812 13.4287 212.639 13.8389C212.465 14.249 212.379 14.7389 212.379 15.3086V15.3223C212.379 15.8874 212.465 16.3773 212.639 16.792C212.812 17.2021 213.06 17.5189 213.384 17.7422C213.707 17.9655 214.092 18.0771 214.539 18.0771ZM222.602 19.1299C221.9 19.1299 221.296 18.9749 220.79 18.665C220.289 18.3551 219.901 17.9176 219.628 17.3525C219.359 16.7829 219.225 16.113 219.225 15.3428V15.3359C219.225 14.5749 219.359 13.9072 219.628 13.333C219.901 12.7588 220.287 12.3099 220.783 11.9863C221.28 11.6628 221.861 11.501 222.526 11.501C223.196 11.501 223.771 11.6559 224.249 11.9658C224.732 12.2757 225.101 12.7087 225.357 13.2646C225.616 13.8161 225.746 14.4587 225.746 15.1924V15.6572H219.84V14.707H225.138L224.55 15.5752V15.1035C224.55 14.5247 224.463 14.0485 224.29 13.6748C224.117 13.3011 223.878 13.0231 223.572 12.8408C223.267 12.654 222.916 12.5605 222.52 12.5605C222.123 12.5605 221.768 12.6585 221.453 12.8545C221.143 13.0459 220.897 13.3307 220.715 13.709C220.533 14.0872 220.442 14.5521 220.442 15.1035V15.5752C220.442 16.0993 220.53 16.5482 220.708 16.9219C220.886 17.291 221.139 17.5758 221.467 17.7764C221.795 17.9723 222.182 18.0703 222.629 18.0703C222.962 18.0703 223.251 18.0247 223.497 17.9336C223.743 17.8424 223.946 17.7262 224.106 17.585C224.265 17.4437 224.377 17.3001 224.441 17.1543L224.468 17.0928H225.657L225.644 17.1475C225.58 17.3981 225.466 17.6419 225.302 17.8789C225.142 18.1113 224.935 18.3232 224.68 18.5146C224.425 18.7015 224.122 18.8519 223.771 18.9658C223.424 19.0752 223.035 19.1299 222.602 19.1299ZM227.506 19V8.70508H228.696V19H227.506Z" fill="#474747"/>
<path d="M257.821 19V10.2432H254.643V9.13574H262.23V10.2432H259.052V19H257.821ZM264.414 19.1299C263.95 19.1299 263.53 19.041 263.157 18.8633C262.787 18.6855 262.493 18.4326 262.275 18.1045C262.061 17.7764 261.953 17.389 261.953 16.9424V16.9287C261.953 16.4912 262.058 16.1175 262.268 15.8076C262.478 15.4932 262.783 15.2471 263.184 15.0693C263.585 14.8916 264.07 14.7868 264.64 14.7549L267.347 14.5908V15.541L264.784 15.7051C264.223 15.737 263.813 15.8532 263.553 16.0537C263.298 16.2542 263.17 16.5368 263.17 16.9014V16.915C263.17 17.2887 263.311 17.5804 263.594 17.79C263.877 17.9951 264.232 18.0977 264.66 18.0977C265.066 18.0977 265.426 18.0179 265.741 17.8584C266.055 17.6943 266.301 17.4733 266.479 17.1953C266.661 16.9173 266.752 16.6029 266.752 16.252V13.9551C266.752 13.4993 266.613 13.153 266.335 12.916C266.062 12.6745 265.649 12.5537 265.098 12.5537C264.656 12.5537 264.294 12.6335 264.011 12.793C263.728 12.9479 263.539 13.1689 263.444 13.4561L263.437 13.4766H262.247L262.254 13.4355C262.318 13.0482 262.478 12.7109 262.733 12.4238C262.992 12.1322 263.327 11.9066 263.738 11.7471C264.148 11.583 264.615 11.501 265.139 11.501C265.741 11.501 266.249 11.599 266.663 11.7949C267.083 11.9909 267.399 12.2734 267.614 12.6426C267.832 13.0072 267.942 13.4447 267.942 13.9551V19H266.752V17.9131H266.643C266.488 18.1729 266.299 18.3939 266.075 18.5762C265.857 18.7585 265.608 18.8975 265.33 18.9932C265.052 19.0843 264.747 19.1299 264.414 19.1299ZM273.626 19.1299C273.284 19.1299 272.967 19.0775 272.675 18.9727C272.384 18.8678 272.124 18.7197 271.896 18.5283C271.668 18.3324 271.479 18.0977 271.329 17.8242H271.219V19H270.03V8.70508H271.219V12.793H271.329C271.465 12.5286 271.648 12.3008 271.876 12.1094C272.108 11.918 272.372 11.7699 272.669 11.665C272.969 11.5557 273.288 11.501 273.626 11.501C274.25 11.501 274.792 11.6582 275.253 11.9727C275.717 12.2871 276.077 12.7292 276.333 13.2988C276.588 13.8685 276.715 14.5384 276.715 15.3086V15.3223C276.715 16.0879 276.588 16.7578 276.333 17.332C276.077 17.9017 275.717 18.3438 275.253 18.6582C274.792 18.9727 274.25 19.1299 273.626 19.1299ZM273.352 18.0771C273.803 18.0771 274.188 17.9678 274.507 17.749C274.826 17.5257 275.07 17.209 275.239 16.7988C275.412 16.3841 275.499 15.8919 275.499 15.3223V15.3086C275.499 14.7344 275.412 14.2422 275.239 13.832C275.07 13.4219 274.826 13.1074 274.507 12.8887C274.188 12.6654 273.803 12.5537 273.352 12.5537C272.906 12.5537 272.52 12.6654 272.197 12.8887C271.873 13.112 271.625 13.4287 271.452 13.8389C271.279 14.249 271.192 14.7389 271.192 15.3086V15.3223C271.192 15.8874 271.279 16.3773 271.452 16.792C271.625 17.2021 271.873 17.5189 272.197 17.7422C272.52 17.9655 272.906 18.0771 273.352 18.0771ZM282.259 19V8.70508H283.448V19H282.259ZM287.601 19.1299C287.136 19.1299 286.717 19.041 286.343 18.8633C285.974 18.6855 285.68 18.4326 285.461 18.1045C285.247 17.7764 285.14 17.389 285.14 16.9424V16.9287C285.14 16.4912 285.245 16.1175 285.455 15.8076C285.664 15.4932 285.97 15.2471 286.371 15.0693C286.772 14.8916 287.257 14.7868 287.827 14.7549L290.534 14.5908V15.541L287.97 15.7051C287.41 15.737 287 15.8532 286.74 16.0537C286.485 16.2542 286.357 16.5368 286.357 16.9014V16.915C286.357 17.2887 286.498 17.5804 286.781 17.79C287.063 17.9951 287.419 18.0977 287.847 18.0977C288.253 18.0977 288.613 18.0179 288.927 17.8584C289.242 17.6943 289.488 17.4733 289.666 17.1953C289.848 16.9173 289.939 16.6029 289.939 16.252V13.9551C289.939 13.4993 289.8 13.153 289.522 12.916C289.249 12.6745 288.836 12.5537 288.285 12.5537C287.843 12.5537 287.48 12.6335 287.198 12.793C286.915 12.9479 286.726 13.1689 286.63 13.4561L286.624 13.4766H285.434L285.441 13.4355C285.505 13.0482 285.664 12.7109 285.919 12.4238C286.179 12.1322 286.514 11.9066 286.924 11.7471C287.334 11.583 287.802 11.501 288.326 11.501C288.927 11.501 289.435 11.599 289.85 11.7949C290.269 11.9909 290.586 12.2734 290.8 12.6426C291.019 13.0072 291.128 13.4447 291.128 13.9551V19H289.939V17.9131H289.83C289.675 18.1729 289.486 18.3939 289.262 18.5762C289.043 18.7585 288.795 18.8975 288.517 18.9932C288.239 19.0843 287.934 19.1299 287.601 19.1299ZM296.812 19.1299C296.471 19.1299 296.154 19.0775 295.862 18.9727C295.57 18.8678 295.311 18.7197 295.083 18.5283C294.855 18.3324 294.666 18.0977 294.515 17.8242H294.406V19H293.217V8.70508H294.406V12.793H294.515C294.652 12.5286 294.834 12.3008 295.062 12.1094C295.295 11.918 295.559 11.7699 295.855 11.665C296.156 11.5557 296.475 11.501 296.812 11.501C297.437 11.501 297.979 11.6582 298.439 11.9727C298.904 12.2871 299.264 12.7292 299.519 13.2988C299.775 13.8685 299.902 14.5384 299.902 15.3086V15.3223C299.902 16.0879 299.775 16.7578 299.519 17.332C299.264 17.9017 298.904 18.3438 298.439 18.6582C297.979 18.9727 297.437 19.1299 296.812 19.1299ZM296.539 18.0771C296.99 18.0771 297.375 17.9678 297.694 17.749C298.013 17.5257 298.257 17.209 298.426 16.7988C298.599 16.3841 298.685 15.8919 298.685 15.3223V15.3086C298.685 14.7344 298.599 14.2422 298.426 13.832C298.257 13.4219 298.013 13.1074 297.694 12.8887C297.375 12.6654 296.99 12.5537 296.539 12.5537C296.092 12.5537 295.707 12.6654 295.384 12.8887C295.06 13.112 294.812 13.4287 294.639 13.8389C294.465 14.249 294.379 14.7389 294.379 15.3086V15.3223C294.379 15.8874 294.465 16.3773 294.639 16.792C294.812 17.2021 295.06 17.5189 295.384 17.7422C295.707 17.9655 296.092 18.0771 296.539 18.0771ZM304.602 19.1299C303.9 19.1299 303.296 18.9749 302.79 18.665C302.289 18.3551 301.901 17.9176 301.628 17.3525C301.359 16.7829 301.225 16.113 301.225 15.3428V15.3359C301.225 14.5749 301.359 13.9072 301.628 13.333C301.901 12.7588 302.287 12.3099 302.783 11.9863C303.28 11.6628 303.861 11.501 304.526 11.501C305.196 11.501 305.771 11.6559 306.249 11.9658C306.732 12.2757 307.101 12.7087 307.357 13.2646C307.616 13.8161 307.746 14.4587 307.746 15.1924V15.6572H301.84V14.707H307.138L306.55 15.5752V15.1035C306.55 14.5247 306.463 14.0485 306.29 13.6748C306.117 13.3011 305.878 13.0231 305.572 12.8408C305.267 12.654 304.916 12.5605 304.52 12.5605C304.123 12.5605 303.768 12.6585 303.453 12.8545C303.143 13.0459 302.897 13.3307 302.715 13.709C302.533 14.0872 302.442 14.5521 302.442 15.1035V15.5752C302.442 16.0993 302.53 16.5482 302.708 16.9219C302.886 17.291 303.139 17.5758 303.467 17.7764C303.795 17.9723 304.182 18.0703 304.629 18.0703C304.962 18.0703 305.251 18.0247 305.497 17.9336C305.743 17.8424 305.946 17.7262 306.106 17.585C306.265 17.4437 306.377 17.3001 306.441 17.1543L306.468 17.0928H307.657L307.644 17.1475C307.58 17.3981 307.466 17.6419 307.302 17.8789C307.142 18.1113 306.935 18.3232 306.68 18.5146C306.425 18.7015 306.122 18.8519 305.771 18.9658C305.424 19.0752 305.035 19.1299 304.602 19.1299ZM309.506 19V8.70508H310.696V19H309.506Z" fill="#474747"/>
<path d="M339.821 19V10.2432H336.643V9.13574H344.23V10.2432H341.052V19H339.821ZM346.414 19.1299C345.95 19.1299 345.53 19.041 345.157 18.8633C344.787 18.6855 344.493 18.4326 344.275 18.1045C344.061 17.7764 343.953 17.389 343.953 16.9424V16.9287C343.953 16.4912 344.058 16.1175 344.268 15.8076C344.478 15.4932 344.783 15.2471 345.184 15.0693C345.585 14.8916 346.07 14.7868 346.64 14.7549L349.347 14.5908V15.541L346.784 15.7051C346.223 15.737 345.813 15.8532 345.553 16.0537C345.298 16.2542 345.17 16.5368 345.17 16.9014V16.915C345.17 17.2887 345.311 17.5804 345.594 17.79C345.877 17.9951 346.232 18.0977 346.66 18.0977C347.066 18.0977 347.426 18.0179 347.741 17.8584C348.055 17.6943 348.301 17.4733 348.479 17.1953C348.661 16.9173 348.752 16.6029 348.752 16.252V13.9551C348.752 13.4993 348.613 13.153 348.335 12.916C348.062 12.6745 347.649 12.5537 347.098 12.5537C346.656 12.5537 346.294 12.6335 346.011 12.793C345.728 12.9479 345.539 13.1689 345.444 13.4561L345.437 13.4766H344.247L344.254 13.4355C344.318 13.0482 344.478 12.7109 344.733 12.4238C344.992 12.1322 345.327 11.9066 345.738 11.7471C346.148 11.583 346.615 11.501 347.139 11.501C347.741 11.501 348.249 11.599 348.663 11.7949C349.083 11.9909 349.399 12.2734 349.614 12.6426C349.832 13.0072 349.942 13.4447 349.942 13.9551V19H348.752V17.9131H348.643C348.488 18.1729 348.299 18.3939 348.075 18.5762C347.857 18.7585 347.608 18.8975 347.33 18.9932C347.052 19.0843 346.747 19.1299 346.414 19.1299ZM355.626 19.1299C355.284 19.1299 354.967 19.0775 354.675 18.9727C354.384 18.8678 354.124 18.7197 353.896 18.5283C353.668 18.3324 353.479 18.0977 353.329 17.8242H353.219V19H352.03V8.70508H353.219V12.793H353.329C353.465 12.5286 353.648 12.3008 353.876 12.1094C354.108 11.918 354.372 11.7699 354.669 11.665C354.969 11.5557 355.288 11.501 355.626 11.501C356.25 11.501 356.792 11.6582 357.253 11.9727C357.717 12.2871 358.077 12.7292 358.333 13.2988C358.588 13.8685 358.715 14.5384 358.715 15.3086V15.3223C358.715 16.0879 358.588 16.7578 358.333 17.332C358.077 17.9017 357.717 18.3438 357.253 18.6582C356.792 18.9727 356.25 19.1299 355.626 19.1299ZM355.352 18.0771C355.803 18.0771 356.188 17.9678 356.507 17.749C356.826 17.5257 357.07 17.209 357.239 16.7988C357.412 16.3841 357.499 15.8919 357.499 15.3223V15.3086C357.499 14.7344 357.412 14.2422 357.239 13.832C357.07 13.4219 356.826 13.1074 356.507 12.8887C356.188 12.6654 355.803 12.5537 355.352 12.5537C354.906 12.5537 354.52 12.6654 354.197 12.8887C353.873 13.112 353.625 13.4287 353.452 13.8389C353.279 14.249 353.192 14.7389 353.192 15.3086V15.3223C353.192 15.8874 353.279 16.3773 353.452 16.792C353.625 17.2021 353.873 17.5189 354.197 17.7422C354.52 17.9655 354.906 18.0771 355.352 18.0771ZM364.259 19V8.70508H365.448V19H364.259ZM369.601 19.1299C369.136 19.1299 368.717 19.041 368.343 18.8633C367.974 18.6855 367.68 18.4326 367.461 18.1045C367.247 17.7764 367.14 17.389 367.14 16.9424V16.9287C367.14 16.4912 367.245 16.1175 367.455 15.8076C367.664 15.4932 367.97 15.2471 368.371 15.0693C368.772 14.8916 369.257 14.7868 369.827 14.7549L372.534 14.5908V15.541L369.97 15.7051C369.41 15.737 369 15.8532 368.74 16.0537C368.485 16.2542 368.357 16.5368 368.357 16.9014V16.915C368.357 17.2887 368.498 17.5804 368.781 17.79C369.063 17.9951 369.419 18.0977 369.847 18.0977C370.253 18.0977 370.613 18.0179 370.927 17.8584C371.242 17.6943 371.488 17.4733 371.666 17.1953C371.848 16.9173 371.939 16.6029 371.939 16.252V13.9551C371.939 13.4993 371.8 13.153 371.522 12.916C371.249 12.6745 370.836 12.5537 370.285 12.5537C369.843 12.5537 369.48 12.6335 369.198 12.793C368.915 12.9479 368.726 13.1689 368.63 13.4561L368.624 13.4766H367.434L367.441 13.4355C367.505 13.0482 367.664 12.7109 367.919 12.4238C368.179 12.1322 368.514 11.9066 368.924 11.7471C369.334 11.583 369.802 11.501 370.326 11.501C370.927 11.501 371.435 11.599 371.85 11.7949C372.269 11.9909 372.586 12.2734 372.8 12.6426C373.019 13.0072 373.128 13.4447 373.128 13.9551V19H371.939V17.9131H371.83C371.675 18.1729 371.486 18.3939 371.262 18.5762C371.043 18.7585 370.795 18.8975 370.517 18.9932C370.239 19.0843 369.934 19.1299 369.601 19.1299ZM378.812 19.1299C378.471 19.1299 378.154 19.0775 377.862 18.9727C377.57 18.8678 377.311 18.7197 377.083 18.5283C376.855 18.3324 376.666 18.0977 376.515 17.8242H376.406V19H375.217V8.70508H376.406V12.793H376.515C376.652 12.5286 376.834 12.3008 377.062 12.1094C377.295 11.918 377.559 11.7699 377.855 11.665C378.156 11.5557 378.475 11.501 378.812 11.501C379.437 11.501 379.979 11.6582 380.439 11.9727C380.904 12.2871 381.264 12.7292 381.519 13.2988C381.775 13.8685 381.902 14.5384 381.902 15.3086V15.3223C381.902 16.0879 381.775 16.7578 381.519 17.332C381.264 17.9017 380.904 18.3438 380.439 18.6582C379.979 18.9727 379.437 19.1299 378.812 19.1299ZM378.539 18.0771C378.99 18.0771 379.375 17.9678 379.694 17.749C380.013 17.5257 380.257 17.209 380.426 16.7988C380.599 16.3841 380.685 15.8919 380.685 15.3223V15.3086C380.685 14.7344 380.599 14.2422 380.426 13.832C380.257 13.4219 380.013 13.1074 379.694 12.8887C379.375 12.6654 378.99 12.5537 378.539 12.5537C378.092 12.5537 377.707 12.6654 377.384 12.8887C377.06 13.112 376.812 13.4287 376.639 13.8389C376.465 14.249 376.379 14.7389 376.379 15.3086V15.3223C376.379 15.8874 376.465 16.3773 376.639 16.792C376.812 17.2021 377.06 17.5189 377.384 17.7422C377.707 17.9655 378.092 18.0771 378.539 18.0771ZM386.602 19.1299C385.9 19.1299 385.296 18.9749 384.79 18.665C384.289 18.3551 383.901 17.9176 383.628 17.3525C383.359 16.7829 383.225 16.113 383.225 15.3428V15.3359C383.225 14.5749 383.359 13.9072 383.628 13.333C383.901 12.7588 384.287 12.3099 384.783 11.9863C385.28 11.6628 385.861 11.501 386.526 11.501C387.196 11.501 387.771 11.6559 388.249 11.9658C388.732 12.2757 389.101 12.7087 389.357 13.2646C389.616 13.8161 389.746 14.4587 389.746 15.1924V15.6572H383.84V14.707H389.138L388.55 15.5752V15.1035C388.55 14.5247 388.463 14.0485 388.29 13.6748C388.117 13.3011 387.878 13.0231 387.572 12.8408C387.267 12.654 386.916 12.5605 386.52 12.5605C386.123 12.5605 385.768 12.6585 385.453 12.8545C385.143 13.0459 384.897 13.3307 384.715 13.709C384.533 14.0872 384.442 14.5521 384.442 15.1035V15.5752C384.442 16.0993 384.53 16.5482 384.708 16.9219C384.886 17.291 385.139 17.5758 385.467 17.7764C385.795 17.9723 386.182 18.0703 386.629 18.0703C386.962 18.0703 387.251 18.0247 387.497 17.9336C387.743 17.8424 387.946 17.7262 388.106 17.585C388.265 17.4437 388.377 17.3001 388.441 17.1543L388.468 17.0928H389.657L389.644 17.1475C389.58 17.3981 389.466 17.6419 389.302 17.8789C389.142 18.1113 388.935 18.3232 388.68 18.5146C388.425 18.7015 388.122 18.8519 387.771 18.9658C387.424 19.0752 387.035 19.1299 386.602 19.1299ZM391.506 19V8.70508H392.696V19H391.506Z" fill="#474747"/>
<path d="M421.821 19V10.2432H418.643V9.13574H426.23V10.2432H423.052V19H421.821ZM428.414 19.1299C427.95 19.1299 427.53 19.041 427.157 18.8633C426.787 18.6855 426.493 18.4326 426.275 18.1045C426.061 17.7764 425.953 17.389 425.953 16.9424V16.9287C425.953 16.4912 426.058 16.1175 426.268 15.8076C426.478 15.4932 426.783 15.2471 427.184 15.0693C427.585 14.8916 428.07 14.7868 428.64 14.7549L431.347 14.5908V15.541L428.784 15.7051C428.223 15.737 427.813 15.8532 427.553 16.0537C427.298 16.2542 427.17 16.5368 427.17 16.9014V16.915C427.17 17.2887 427.311 17.5804 427.594 17.79C427.877 17.9951 428.232 18.0977 428.66 18.0977C429.066 18.0977 429.426 18.0179 429.741 17.8584C430.055 17.6943 430.301 17.4733 430.479 17.1953C430.661 16.9173 430.752 16.6029 430.752 16.252V13.9551C430.752 13.4993 430.613 13.153 430.335 12.916C430.062 12.6745 429.649 12.5537 429.098 12.5537C428.656 12.5537 428.294 12.6335 428.011 12.793C427.728 12.9479 427.539 13.1689 427.444 13.4561L427.437 13.4766H426.247L426.254 13.4355C426.318 13.0482 426.478 12.7109 426.733 12.4238C426.992 12.1322 427.327 11.9066 427.738 11.7471C428.148 11.583 428.615 11.501 429.139 11.501C429.741 11.501 430.249 11.599 430.663 11.7949C431.083 11.9909 431.399 12.2734 431.614 12.6426C431.832 13.0072 431.942 13.4447 431.942 13.9551V19H430.752V17.9131H430.643C430.488 18.1729 430.299 18.3939 430.075 18.5762C429.857 18.7585 429.608 18.8975 429.33 18.9932C429.052 19.0843 428.747 19.1299 428.414 19.1299ZM437.626 19.1299C437.284 19.1299 436.967 19.0775 436.675 18.9727C436.384 18.8678 436.124 18.7197 435.896 18.5283C435.668 18.3324 435.479 18.0977 435.329 17.8242H435.219V19H434.03V8.70508H435.219V12.793H435.329C435.465 12.5286 435.648 12.3008 435.876 12.1094C436.108 11.918 436.372 11.7699 436.669 11.665C436.969 11.5557 437.288 11.501 437.626 11.501C438.25 11.501 438.792 11.6582 439.253 11.9727C439.717 12.2871 440.077 12.7292 440.333 13.2988C440.588 13.8685 440.715 14.5384 440.715 15.3086V15.3223C440.715 16.0879 440.588 16.7578 440.333 17.332C440.077 17.9017 439.717 18.3438 439.253 18.6582C438.792 18.9727 438.25 19.1299 437.626 19.1299ZM437.352 18.0771C437.803 18.0771 438.188 17.9678 438.507 17.749C438.826 17.5257 439.07 17.209 439.239 16.7988C439.412 16.3841 439.499 15.8919 439.499 15.3223V15.3086C439.499 14.7344 439.412 14.2422 439.239 13.832C439.07 13.4219 438.826 13.1074 438.507 12.8887C438.188 12.6654 437.803 12.5537 437.352 12.5537C436.906 12.5537 436.52 12.6654 436.197 12.8887C435.873 13.112 435.625 13.4287 435.452 13.8389C435.279 14.249 435.192 14.7389 435.192 15.3086V15.3223C435.192 15.8874 435.279 16.3773 435.452 16.792C435.625 17.2021 435.873 17.5189 436.197 17.7422C436.52 17.9655 436.906 18.0771 437.352 18.0771ZM446.259 19V8.70508H447.448V19H446.259ZM451.601 19.1299C451.136 19.1299 450.717 19.041 450.343 18.8633C449.974 18.6855 449.68 18.4326 449.461 18.1045C449.247 17.7764 449.14 17.389 449.14 16.9424V16.9287C449.14 16.4912 449.245 16.1175 449.455 15.8076C449.664 15.4932 449.97 15.2471 450.371 15.0693C450.772 14.8916 451.257 14.7868 451.827 14.7549L454.534 14.5908V15.541L451.97 15.7051C451.41 15.737 451 15.8532 450.74 16.0537C450.485 16.2542 450.357 16.5368 450.357 16.9014V16.915C450.357 17.2887 450.498 17.5804 450.781 17.79C451.063 17.9951 451.419 18.0977 451.847 18.0977C452.253 18.0977 452.613 18.0179 452.927 17.8584C453.242 17.6943 453.488 17.4733 453.666 17.1953C453.848 16.9173 453.939 16.6029 453.939 16.252V13.9551C453.939 13.4993 453.8 13.153 453.522 12.916C453.249 12.6745 452.836 12.5537 452.285 12.5537C451.843 12.5537 451.48 12.6335 451.198 12.793C450.915 12.9479 450.726 13.1689 450.63 13.4561L450.624 13.4766H449.434L449.441 13.4355C449.505 13.0482 449.664 12.7109 449.919 12.4238C450.179 12.1322 450.514 11.9066 450.924 11.7471C451.334 11.583 451.802 11.501 452.326 11.501C452.927 11.501 453.435 11.599 453.85 11.7949C454.269 11.9909 454.586 12.2734 454.8 12.6426C455.019 13.0072 455.128 13.4447 455.128 13.9551V19H453.939V17.9131H453.83C453.675 18.1729 453.486 18.3939 453.262 18.5762C453.043 18.7585 452.795 18.8975 452.517 18.9932C452.239 19.0843 451.934 19.1299 451.601 19.1299ZM460.812 19.1299C460.471 19.1299 460.154 19.0775 459.862 18.9727C459.57 18.8678 459.311 18.7197 459.083 18.5283C458.855 18.3324 458.666 18.0977 458.515 17.8242H458.406V19H457.217V8.70508H458.406V12.793H458.515C458.652 12.5286 458.834 12.3008 459.062 12.1094C459.295 11.918 459.559 11.7699 459.855 11.665C460.156 11.5557 460.475 11.501 460.812 11.501C461.437 11.501 461.979 11.6582 462.439 11.9727C462.904 12.2871 463.264 12.7292 463.519 13.2988C463.775 13.8685 463.902 14.5384 463.902 15.3086V15.3223C463.902 16.0879 463.775 16.7578 463.519 17.332C463.264 17.9017 462.904 18.3438 462.439 18.6582C461.979 18.9727 461.437 19.1299 460.812 19.1299ZM460.539 18.0771C460.99 18.0771 461.375 17.9678 461.694 17.749C462.013 17.5257 462.257 17.209 462.426 16.7988C462.599 16.3841 462.685 15.8919 462.685 15.3223V15.3086C462.685 14.7344 462.599 14.2422 462.426 13.832C462.257 13.4219 462.013 13.1074 461.694 12.8887C461.375 12.6654 460.99 12.5537 460.539 12.5537C460.092 12.5537 459.707 12.6654 459.384 12.8887C459.06 13.112 458.812 13.4287 458.639 13.8389C458.465 14.249 458.379 14.7389 458.379 15.3086V15.3223C458.379 15.8874 458.465 16.3773 458.639 16.792C458.812 17.2021 459.06 17.5189 459.384 17.7422C459.707 17.9655 460.092 18.0771 460.539 18.0771ZM468.602 19.1299C467.9 19.1299 467.296 18.9749 466.79 18.665C466.289 18.3551 465.901 17.9176 465.628 17.3525C465.359 16.7829 465.225 16.113 465.225 15.3428V15.3359C465.225 14.5749 465.359 13.9072 465.628 13.333C465.901 12.7588 466.287 12.3099 466.783 11.9863C467.28 11.6628 467.861 11.501 468.526 11.501C469.196 11.501 469.771 11.6559 470.249 11.9658C470.732 12.2757 471.101 12.7087 471.357 13.2646C471.616 13.8161 471.746 14.4587 471.746 15.1924V15.6572H465.84V14.707H471.138L470.55 15.5752V15.1035C470.55 14.5247 470.463 14.0485 470.29 13.6748C470.117 13.3011 469.878 13.0231 469.572 12.8408C469.267 12.654 468.916 12.5605 468.52 12.5605C468.123 12.5605 467.768 12.6585 467.453 12.8545C467.143 13.0459 466.897 13.3307 466.715 13.709C466.533 14.0872 466.442 14.5521 466.442 15.1035V15.5752C466.442 16.0993 466.53 16.5482 466.708 16.9219C466.886 17.291 467.139 17.5758 467.467 17.7764C467.795 17.9723 468.182 18.0703 468.629 18.0703C468.962 18.0703 469.251 18.0247 469.497 17.9336C469.743 17.8424 469.946 17.7262 470.106 17.585C470.265 17.4437 470.377 17.3001 470.441 17.1543L470.468 17.0928H471.657L471.644 17.1475C471.58 17.3981 471.466 17.6419 471.302 17.8789C471.142 18.1113 470.935 18.3232 470.68 18.5146C470.425 18.7015 470.122 18.8519 469.771 18.9658C469.424 19.0752 469.035 19.1299 468.602 19.1299ZM473.506 19V8.70508H474.696V19H473.506Z" fill="#474747"/>
<path d="M503.821 19V10.2432H500.643V9.13574H508.23V10.2432H505.052V19H503.821ZM510.414 19.1299C509.95 19.1299 509.53 19.041 509.157 18.8633C508.787 18.6855 508.493 18.4326 508.275 18.1045C508.061 17.7764 507.953 17.389 507.953 16.9424V16.9287C507.953 16.4912 508.058 16.1175 508.268 15.8076C508.478 15.4932 508.783 15.2471 509.184 15.0693C509.585 14.8916 510.07 14.7868 510.64 14.7549L513.347 14.5908V15.541L510.784 15.7051C510.223 15.737 509.813 15.8532 509.553 16.0537C509.298 16.2542 509.17 16.5368 509.17 16.9014V16.915C509.17 17.2887 509.311 17.5804 509.594 17.79C509.877 17.9951 510.232 18.0977 510.66 18.0977C511.066 18.0977 511.426 18.0179 511.741 17.8584C512.055 17.6943 512.301 17.4733 512.479 17.1953C512.661 16.9173 512.752 16.6029 512.752 16.252V13.9551C512.752 13.4993 512.613 13.153 512.335 12.916C512.062 12.6745 511.649 12.5537 511.098 12.5537C510.656 12.5537 510.294 12.6335 510.011 12.793C509.728 12.9479 509.539 13.1689 509.444 13.4561L509.437 13.4766H508.247L508.254 13.4355C508.318 13.0482 508.478 12.7109 508.733 12.4238C508.992 12.1322 509.327 11.9066 509.738 11.7471C510.148 11.583 510.615 11.501 511.139 11.501C511.741 11.501 512.249 11.599 512.663 11.7949C513.083 11.9909 513.399 12.2734 513.614 12.6426C513.832 13.0072 513.942 13.4447 513.942 13.9551V19H512.752V17.9131H512.643C512.488 18.1729 512.299 18.3939 512.075 18.5762C511.857 18.7585 511.608 18.8975 511.33 18.9932C511.052 19.0843 510.747 19.1299 510.414 19.1299ZM519.626 19.1299C519.284 19.1299 518.967 19.0775 518.675 18.9727C518.384 18.8678 518.124 18.7197 517.896 18.5283C517.668 18.3324 517.479 18.0977 517.329 17.8242H517.219V19H516.03V8.70508H517.219V12.793H517.329C517.465 12.5286 517.648 12.3008 517.876 12.1094C518.108 11.918 518.372 11.7699 518.669 11.665C518.969 11.5557 519.288 11.501 519.626 11.501C520.25 11.501 520.792 11.6582 521.253 11.9727C521.717 12.2871 522.077 12.7292 522.333 13.2988C522.588 13.8685 522.715 14.5384 522.715 15.3086V15.3223C522.715 16.0879 522.588 16.7578 522.333 17.332C522.077 17.9017 521.717 18.3438 521.253 18.6582C520.792 18.9727 520.25 19.1299 519.626 19.1299ZM519.352 18.0771C519.803 18.0771 520.188 17.9678 520.507 17.749C520.826 17.5257 521.07 17.209 521.239 16.7988C521.412 16.3841 521.499 15.8919 521.499 15.3223V15.3086C521.499 14.7344 521.412 14.2422 521.239 13.832C521.07 13.4219 520.826 13.1074 520.507 12.8887C520.188 12.6654 519.803 12.5537 519.352 12.5537C518.906 12.5537 518.52 12.6654 518.197 12.8887C517.873 13.112 517.625 13.4287 517.452 13.8389C517.279 14.249 517.192 14.7389 517.192 15.3086V15.3223C517.192 15.8874 517.279 16.3773 517.452 16.792C517.625 17.2021 517.873 17.5189 518.197 17.7422C518.52 17.9655 518.906 18.0771 519.352 18.0771ZM528.259 19V8.70508H529.448V19H528.259ZM533.601 19.1299C533.136 19.1299 532.717 19.041 532.343 18.8633C531.974 18.6855 531.68 18.4326 531.461 18.1045C531.247 17.7764 531.14 17.389 531.14 16.9424V16.9287C531.14 16.4912 531.245 16.1175 531.455 15.8076C531.664 15.4932 531.97 15.2471 532.371 15.0693C532.772 14.8916 533.257 14.7868 533.827 14.7549L536.534 14.5908V15.541L533.97 15.7051C533.41 15.737 533 15.8532 532.74 16.0537C532.485 16.2542 532.357 16.5368 532.357 16.9014V16.915C532.357 17.2887 532.498 17.5804 532.781 17.79C533.063 17.9951 533.419 18.0977 533.847 18.0977C534.253 18.0977 534.613 18.0179 534.927 17.8584C535.242 17.6943 535.488 17.4733 535.666 17.1953C535.848 16.9173 535.939 16.6029 535.939 16.252V13.9551C535.939 13.4993 535.8 13.153 535.522 12.916C535.249 12.6745 534.836 12.5537 534.285 12.5537C533.843 12.5537 533.48 12.6335 533.198 12.793C532.915 12.9479 532.726 13.1689 532.63 13.4561L532.624 13.4766H531.434L531.441 13.4355C531.505 13.0482 531.664 12.7109 531.919 12.4238C532.179 12.1322 532.514 11.9066 532.924 11.7471C533.334 11.583 533.802 11.501 534.326 11.501C534.927 11.501 535.435 11.599 535.85 11.7949C536.269 11.9909 536.586 12.2734 536.8 12.6426C537.019 13.0072 537.128 13.4447 537.128 13.9551V19H535.939V17.9131H535.83C535.675 18.1729 535.486 18.3939 535.262 18.5762C535.043 18.7585 534.795 18.8975 534.517 18.9932C534.239 19.0843 533.934 19.1299 533.601 19.1299ZM542.812 19.1299C542.471 19.1299 542.154 19.0775 541.862 18.9727C541.57 18.8678 541.311 18.7197 541.083 18.5283C540.855 18.3324 540.666 18.0977 540.515 17.8242H540.406V19H539.217V8.70508H540.406V12.793H540.515C540.652 12.5286 540.834 12.3008 541.062 12.1094C541.295 11.918 541.559 11.7699 541.855 11.665C542.156 11.5557 542.475 11.501 542.812 11.501C543.437 11.501 543.979 11.6582 544.439 11.9727C544.904 12.2871 545.264 12.7292 545.519 13.2988C545.775 13.8685 545.902 14.5384 545.902 15.3086V15.3223C545.902 16.0879 545.775 16.7578 545.519 17.332C545.264 17.9017 544.904 18.3438 544.439 18.6582C543.979 18.9727 543.437 19.1299 542.812 19.1299ZM542.539 18.0771C542.99 18.0771 543.375 17.9678 543.694 17.749C544.013 17.5257 544.257 17.209 544.426 16.7988C544.599 16.3841 544.685 15.8919 544.685 15.3223V15.3086C544.685 14.7344 544.599 14.2422 544.426 13.832C544.257 13.4219 544.013 13.1074 543.694 12.8887C543.375 12.6654 542.99 12.5537 542.539 12.5537C542.092 12.5537 541.707 12.6654 541.384 12.8887C541.06 13.112 540.812 13.4287 540.639 13.8389C540.465 14.249 540.379 14.7389 540.379 15.3086V15.3223C540.379 15.8874 540.465 16.3773 540.639 16.792C540.812 17.2021 541.06 17.5189 541.384 17.7422C541.707 17.9655 542.092 18.0771 542.539 18.0771ZM550.602 19.1299C549.9 19.1299 549.296 18.9749 548.79 18.665C548.289 18.3551 547.901 17.9176 547.628 17.3525C547.359 16.7829 547.225 16.113 547.225 15.3428V15.3359C547.225 14.5749 547.359 13.9072 547.628 13.333C547.901 12.7588 548.287 12.3099 548.783 11.9863C549.28 11.6628 549.861 11.501 550.526 11.501C551.196 11.501 551.771 11.6559 552.249 11.9658C552.732 12.2757 553.101 12.7087 553.357 13.2646C553.616 13.8161 553.746 14.4587 553.746 15.1924V15.6572H547.84V14.707H553.138L552.55 15.5752V15.1035C552.55 14.5247 552.463 14.0485 552.29 13.6748C552.117 13.3011 551.878 13.0231 551.572 12.8408C551.267 12.654 550.916 12.5605 550.52 12.5605C550.123 12.5605 549.768 12.6585 549.453 12.8545C549.143 13.0459 548.897 13.3307 548.715 13.709C548.533 14.0872 548.442 14.5521 548.442 15.1035V15.5752C548.442 16.0993 548.53 16.5482 548.708 16.9219C548.886 17.291 549.139 17.5758 549.467 17.7764C549.795 17.9723 550.182 18.0703 550.629 18.0703C550.962 18.0703 551.251 18.0247 551.497 17.9336C551.743 17.8424 551.946 17.7262 552.106 17.585C552.265 17.4437 552.377 17.3001 552.441 17.1543L552.468 17.0928H553.657L553.644 17.1475C553.58 17.3981 553.466 17.6419 553.302 17.8789C553.142 18.1113 552.935 18.3232 552.68 18.5146C552.425 18.7015 552.122 18.8519 551.771 18.9658C551.424 19.0752 551.035 19.1299 550.602 19.1299ZM555.506 19V8.70508H556.696V19H555.506Z" fill="#474747"/>
<path d="M585.821 19V10.2432H582.643V9.13574H590.23V10.2432H587.052V19H585.821ZM592.414 19.1299C591.95 19.1299 591.53 19.041 591.157 18.8633C590.787 18.6855 590.493 18.4326 590.275 18.1045C590.061 17.7764 589.953 17.389 589.953 16.9424V16.9287C589.953 16.4912 590.058 16.1175 590.268 15.8076C590.478 15.4932 590.783 15.2471 591.184 15.0693C591.585 14.8916 592.07 14.7868 592.64 14.7549L595.347 14.5908V15.541L592.784 15.7051C592.223 15.737 591.813 15.8532 591.553 16.0537C591.298 16.2542 591.17 16.5368 591.17 16.9014V16.915C591.17 17.2887 591.311 17.5804 591.594 17.79C591.877 17.9951 592.232 18.0977 592.66 18.0977C593.066 18.0977 593.426 18.0179 593.741 17.8584C594.055 17.6943 594.301 17.4733 594.479 17.1953C594.661 16.9173 594.752 16.6029 594.752 16.252V13.9551C594.752 13.4993 594.613 13.153 594.335 12.916C594.062 12.6745 593.649 12.5537 593.098 12.5537C592.656 12.5537 592.294 12.6335 592.011 12.793C591.728 12.9479 591.539 13.1689 591.444 13.4561L591.437 13.4766H590.247L590.254 13.4355C590.318 13.0482 590.478 12.7109 590.733 12.4238C590.992 12.1322 591.327 11.9066 591.738 11.7471C592.148 11.583 592.615 11.501 593.139 11.501C593.741 11.501 594.249 11.599 594.663 11.7949C595.083 11.9909 595.399 12.2734 595.614 12.6426C595.832 13.0072 595.942 13.4447 595.942 13.9551V19H594.752V17.9131H594.643C594.488 18.1729 594.299 18.3939 594.075 18.5762C593.857 18.7585 593.608 18.8975 593.33 18.9932C593.052 19.0843 592.747 19.1299 592.414 19.1299ZM601.626 19.1299C601.284 19.1299 600.967 19.0775 600.675 18.9727C600.384 18.8678 600.124 18.7197 599.896 18.5283C599.668 18.3324 599.479 18.0977 599.329 17.8242H599.219V19H598.03V8.70508H599.219V12.793H599.329C599.465 12.5286 599.648 12.3008 599.876 12.1094C600.108 11.918 600.372 11.7699 600.669 11.665C600.969 11.5557 601.288 11.501 601.626 11.501C602.25 11.501 602.792 11.6582 603.253 11.9727C603.717 12.2871 604.077 12.7292 604.333 13.2988C604.588 13.8685 604.715 14.5384 604.715 15.3086V15.3223C604.715 16.0879 604.588 16.7578 604.333 17.332C604.077 17.9017 603.717 18.3438 603.253 18.6582C602.792 18.9727 602.25 19.1299 601.626 19.1299ZM601.352 18.0771C601.803 18.0771 602.188 17.9678 602.507 17.749C602.826 17.5257 603.07 17.209 603.239 16.7988C603.412 16.3841 603.499 15.8919 603.499 15.3223V15.3086C603.499 14.7344 603.412 14.2422 603.239 13.832C603.07 13.4219 602.826 13.1074 602.507 12.8887C602.188 12.6654 601.803 12.5537 601.352 12.5537C600.906 12.5537 600.52 12.6654 600.197 12.8887C599.873 13.112 599.625 13.4287 599.452 13.8389C599.279 14.249 599.192 14.7389 599.192 15.3086V15.3223C599.192 15.8874 599.279 16.3773 599.452 16.792C599.625 17.2021 599.873 17.5189 600.197 17.7422C600.52 17.9655 600.906 18.0771 601.352 18.0771ZM610.259 19V8.70508H611.448V19H610.259ZM615.601 19.1299C615.136 19.1299 614.717 19.041 614.343 18.8633C613.974 18.6855 613.68 18.4326 613.461 18.1045C613.247 17.7764 613.14 17.389 613.14 16.9424V16.9287C613.14 16.4912 613.245 16.1175 613.455 15.8076C613.664 15.4932 613.97 15.2471 614.371 15.0693C614.772 14.8916 615.257 14.7868 615.827 14.7549L618.534 14.5908V15.541L615.97 15.7051C615.41 15.737 615 15.8532 614.74 16.0537C614.485 16.2542 614.357 16.5368 614.357 16.9014V16.915C614.357 17.2887 614.498 17.5804 614.781 17.79C615.063 17.9951 615.419 18.0977 615.847 18.0977C616.253 18.0977 616.613 18.0179 616.927 17.8584C617.242 17.6943 617.488 17.4733 617.666 17.1953C617.848 16.9173 617.939 16.6029 617.939 16.252V13.9551C617.939 13.4993 617.8 13.153 617.522 12.916C617.249 12.6745 616.836 12.5537 616.285 12.5537C615.843 12.5537 615.48 12.6335 615.198 12.793C614.915 12.9479 614.726 13.1689 614.63 13.4561L614.624 13.4766H613.434L613.441 13.4355C613.505 13.0482 613.664 12.7109 613.919 12.4238C614.179 12.1322 614.514 11.9066 614.924 11.7471C615.334 11.583 615.802 11.501 616.326 11.501C616.927 11.501 617.435 11.599 617.85 11.7949C618.269 11.9909 618.586 12.2734 618.8 12.6426C619.019 13.0072 619.128 13.4447 619.128 13.9551V19H617.939V17.9131H617.83C617.675 18.1729 617.486 18.3939 617.262 18.5762C617.043 18.7585 616.795 18.8975 616.517 18.9932C616.239 19.0843 615.934 19.1299 615.601 19.1299ZM624.812 19.1299C624.471 19.1299 624.154 19.0775 623.862 18.9727C623.57 18.8678 623.311 18.7197 623.083 18.5283C622.855 18.3324 622.666 18.0977 622.515 17.8242H622.406V19H621.217V8.70508H622.406V12.793H622.515C622.652 12.5286 622.834 12.3008 623.062 12.1094C623.295 11.918 623.559 11.7699 623.855 11.665C624.156 11.5557 624.475 11.501 624.812 11.501C625.437 11.501 625.979 11.6582 626.439 11.9727C626.904 12.2871 627.264 12.7292 627.519 13.2988C627.775 13.8685 627.902 14.5384 627.902 15.3086V15.3223C627.902 16.0879 627.775 16.7578 627.519 17.332C627.264 17.9017 626.904 18.3438 626.439 18.6582C625.979 18.9727 625.437 19.1299 624.812 19.1299ZM624.539 18.0771C624.99 18.0771 625.375 17.9678 625.694 17.749C626.013 17.5257 626.257 17.209 626.426 16.7988C626.599 16.3841 626.685 15.8919 626.685 15.3223V15.3086C626.685 14.7344 626.599 14.2422 626.426 13.832C626.257 13.4219 626.013 13.1074 625.694 12.8887C625.375 12.6654 624.99 12.5537 624.539 12.5537C624.092 12.5537 623.707 12.6654 623.384 12.8887C623.06 13.112 622.812 13.4287 622.639 13.8389C622.465 14.249 622.379 14.7389 622.379 15.3086V15.3223C622.379 15.8874 622.465 16.3773 622.639 16.792C622.812 17.2021 623.06 17.5189 623.384 17.7422C623.707 17.9655 624.092 18.0771 624.539 18.0771ZM632.602 19.1299C631.9 19.1299 631.296 18.9749 630.79 18.665C630.289 18.3551 629.901 17.9176 629.628 17.3525C629.359 16.7829 629.225 16.113 629.225 15.3428V15.3359C629.225 14.5749 629.359 13.9072 629.628 13.333C629.901 12.7588 630.287 12.3099 630.783 11.9863C631.28 11.6628 631.861 11.501 632.526 11.501C633.196 11.501 633.771 11.6559 634.249 11.9658C634.732 12.2757 635.101 12.7087 635.357 13.2646C635.616 13.8161 635.746 14.4587 635.746 15.1924V15.6572H629.84V14.707H635.138L634.55 15.5752V15.1035C634.55 14.5247 634.463 14.0485 634.29 13.6748C634.117 13.3011 633.878 13.0231 633.572 12.8408C633.267 12.654 632.916 12.5605 632.52 12.5605C632.123 12.5605 631.768 12.6585 631.453 12.8545C631.143 13.0459 630.897 13.3307 630.715 13.709C630.533 14.0872 630.442 14.5521 630.442 15.1035V15.5752C630.442 16.0993 630.53 16.5482 630.708 16.9219C630.886 17.291 631.139 17.5758 631.467 17.7764C631.795 17.9723 632.182 18.0703 632.629 18.0703C632.962 18.0703 633.251 18.0247 633.497 17.9336C633.743 17.8424 633.946 17.7262 634.106 17.585C634.265 17.4437 634.377 17.3001 634.441 17.1543L634.468 17.0928H635.657L635.644 17.1475C635.58 17.3981 635.466 17.6419 635.302 17.8789C635.142 18.1113 634.935 18.3232 634.68 18.5146C634.425 18.7015 634.122 18.8519 633.771 18.9658C633.424 19.0752 633.035 19.1299 632.602 19.1299ZM637.506 19V8.70508H638.696V19H637.506Z" fill="#474747"/>
<path d="M667.821 19V10.2432H664.643V9.13574H672.23V10.2432H669.052V19H667.821ZM674.414 19.1299C673.95 19.1299 673.53 19.041 673.157 18.8633C672.787 18.6855 672.493 18.4326 672.275 18.1045C672.061 17.7764 671.953 17.389 671.953 16.9424V16.9287C671.953 16.4912 672.058 16.1175 672.268 15.8076C672.478 15.4932 672.783 15.2471 673.184 15.0693C673.585 14.8916 674.07 14.7868 674.64 14.7549L677.347 14.5908V15.541L674.784 15.7051C674.223 15.737 673.813 15.8532 673.553 16.0537C673.298 16.2542 673.17 16.5368 673.17 16.9014V16.915C673.17 17.2887 673.311 17.5804 673.594 17.79C673.877 17.9951 674.232 18.0977 674.66 18.0977C675.066 18.0977 675.426 18.0179 675.741 17.8584C676.055 17.6943 676.301 17.4733 676.479 17.1953C676.661 16.9173 676.752 16.6029 676.752 16.252V13.9551C676.752 13.4993 676.613 13.153 676.335 12.916C676.062 12.6745 675.649 12.5537 675.098 12.5537C674.656 12.5537 674.294 12.6335 674.011 12.793C673.728 12.9479 673.539 13.1689 673.444 13.4561L673.437 13.4766H672.247L672.254 13.4355C672.318 13.0482 672.478 12.7109 672.733 12.4238C672.992 12.1322 673.327 11.9066 673.738 11.7471C674.148 11.583 674.615 11.501 675.139 11.501C675.741 11.501 676.249 11.599 676.663 11.7949C677.083 11.9909 677.399 12.2734 677.614 12.6426C677.832 13.0072 677.942 13.4447 677.942 13.9551V19H676.752V17.9131H676.643C676.488 18.1729 676.299 18.3939 676.075 18.5762C675.857 18.7585 675.608 18.8975 675.33 18.9932C675.052 19.0843 674.747 19.1299 674.414 19.1299ZM683.626 19.1299C683.284 19.1299 682.967 19.0775 682.675 18.9727C682.384 18.8678 682.124 18.7197 681.896 18.5283C681.668 18.3324 681.479 18.0977 681.329 17.8242H681.219V19H680.03V8.70508H681.219V12.793H681.329C681.465 12.5286 681.648 12.3008 681.876 12.1094C682.108 11.918 682.372 11.7699 682.669 11.665C682.969 11.5557 683.288 11.501 683.626 11.501C684.25 11.501 684.792 11.6582 685.253 11.9727C685.717 12.2871 686.077 12.7292 686.333 13.2988C686.588 13.8685 686.715 14.5384 686.715 15.3086V15.3223C686.715 16.0879 686.588 16.7578 686.333 17.332C686.077 17.9017 685.717 18.3438 685.253 18.6582C684.792 18.9727 684.25 19.1299 683.626 19.1299ZM683.352 18.0771C683.803 18.0771 684.188 17.9678 684.507 17.749C684.826 17.5257 685.07 17.209 685.239 16.7988C685.412 16.3841 685.499 15.8919 685.499 15.3223V15.3086C685.499 14.7344 685.412 14.2422 685.239 13.832C685.07 13.4219 684.826 13.1074 684.507 12.8887C684.188 12.6654 683.803 12.5537 683.352 12.5537C682.906 12.5537 682.52 12.6654 682.197 12.8887C681.873 13.112 681.625 13.4287 681.452 13.8389C681.279 14.249 681.192 14.7389 681.192 15.3086V15.3223C681.192 15.8874 681.279 16.3773 681.452 16.792C681.625 17.2021 681.873 17.5189 682.197 17.7422C682.52 17.9655 682.906 18.0771 683.352 18.0771ZM692.259 19V8.70508H693.448V19H692.259ZM697.601 19.1299C697.136 19.1299 696.717 19.041 696.343 18.8633C695.974 18.6855 695.68 18.4326 695.461 18.1045C695.247 17.7764 695.14 17.389 695.14 16.9424V16.9287C695.14 16.4912 695.245 16.1175 695.455 15.8076C695.664 15.4932 695.97 15.2471 696.371 15.0693C696.772 14.8916 697.257 14.7868 697.827 14.7549L700.534 14.5908V15.541L697.97 15.7051C697.41 15.737 697 15.8532 696.74 16.0537C696.485 16.2542 696.357 16.5368 696.357 16.9014V16.915C696.357 17.2887 696.498 17.5804 696.781 17.79C697.063 17.9951 697.419 18.0977 697.847 18.0977C698.253 18.0977 698.613 18.0179 698.927 17.8584C699.242 17.6943 699.488 17.4733 699.666 17.1953C699.848 16.9173 699.939 16.6029 699.939 16.252V13.9551C699.939 13.4993 699.8 13.153 699.522 12.916C699.249 12.6745 698.836 12.5537 698.285 12.5537C697.843 12.5537 697.48 12.6335 697.198 12.793C696.915 12.9479 696.726 13.1689 696.63 13.4561L696.624 13.4766H695.434L695.441 13.4355C695.505 13.0482 695.664 12.7109 695.919 12.4238C696.179 12.1322 696.514 11.9066 696.924 11.7471C697.334 11.583 697.802 11.501 698.326 11.501C698.927 11.501 699.435 11.599 699.85 11.7949C700.269 11.9909 700.586 12.2734 700.8 12.6426C701.019 13.0072 701.128 13.4447 701.128 13.9551V19H699.939V17.9131H699.83C699.675 18.1729 699.486 18.3939 699.262 18.5762C699.043 18.7585 698.795 18.8975 698.517 18.9932C698.239 19.0843 697.934 19.1299 697.601 19.1299ZM706.812 19.1299C706.471 19.1299 706.154 19.0775 705.862 18.9727C705.57 18.8678 705.311 18.7197 705.083 18.5283C704.855 18.3324 704.666 18.0977 704.515 17.8242H704.406V19H703.217V8.70508H704.406V12.793H704.515C704.652 12.5286 704.834 12.3008 705.062 12.1094C705.295 11.918 705.559 11.7699 705.855 11.665C706.156 11.5557 706.475 11.501 706.812 11.501C707.437 11.501 707.979 11.6582 708.439 11.9727C708.904 12.2871 709.264 12.7292 709.519 13.2988C709.775 13.8685 709.902 14.5384 709.902 15.3086V15.3223C709.902 16.0879 709.775 16.7578 709.519 17.332C709.264 17.9017 708.904 18.3438 708.439 18.6582C707.979 18.9727 707.437 19.1299 706.812 19.1299ZM706.539 18.0771C706.99 18.0771 707.375 17.9678 707.694 17.749C708.013 17.5257 708.257 17.209 708.426 16.7988C708.599 16.3841 708.685 15.8919 708.685 15.3223V15.3086C708.685 14.7344 708.599 14.2422 708.426 13.832C708.257 13.4219 708.013 13.1074 707.694 12.8887C707.375 12.6654 706.99 12.5537 706.539 12.5537C706.092 12.5537 705.707 12.6654 705.384 12.8887C705.06 13.112 704.812 13.4287 704.639 13.8389C704.465 14.249 704.379 14.7389 704.379 15.3086V15.3223C704.379 15.8874 704.465 16.3773 704.639 16.792C704.812 17.2021 705.06 17.5189 705.384 17.7422C705.707 17.9655 706.092 18.0771 706.539 18.0771ZM714.602 19.1299C713.9 19.1299 713.296 18.9749 712.79 18.665C712.289 18.3551 711.901 17.9176 711.628 17.3525C711.359 16.7829 711.225 16.113 711.225 15.3428V15.3359C711.225 14.5749 711.359 13.9072 711.628 13.333C711.901 12.7588 712.287 12.3099 712.783 11.9863C713.28 11.6628 713.861 11.501 714.526 11.501C715.196 11.501 715.771 11.6559 716.249 11.9658C716.732 12.2757 717.101 12.7087 717.357 13.2646C717.616 13.8161 717.746 14.4587 717.746 15.1924V15.6572H711.84V14.707H717.138L716.55 15.5752V15.1035C716.55 14.5247 716.463 14.0485 716.29 13.6748C716.117 13.3011 715.878 13.0231 715.572 12.8408C715.267 12.654 714.916 12.5605 714.52 12.5605C714.123 12.5605 713.768 12.6585 713.453 12.8545C713.143 13.0459 712.897 13.3307 712.715 13.709C712.533 14.0872 712.442 14.5521 712.442 15.1035V15.5752C712.442 16.0993 712.53 16.5482 712.708 16.9219C712.886 17.291 713.139 17.5758 713.467 17.7764C713.795 17.9723 714.182 18.0703 714.629 18.0703C714.962 18.0703 715.251 18.0247 715.497 17.9336C715.743 17.8424 715.946 17.7262 716.106 17.585C716.265 17.4437 716.377 17.3001 716.441 17.1543L716.468 17.0928H717.657L717.644 17.1475C717.58 17.3981 717.466 17.6419 717.302 17.8789C717.142 18.1113 716.935 18.3232 716.68 18.5146C716.425 18.7015 716.122 18.8519 715.771 18.9658C715.424 19.0752 715.035 19.1299 714.602 19.1299ZM719.506 19V8.70508H720.696V19H719.506Z" fill="#474747"/>
<path d="M749.821 19V10.2432H746.643V9.13574H754.23V10.2432H751.052V19H749.821ZM756.414 19.1299C755.95 19.1299 755.53 19.041 755.157 18.8633C754.787 18.6855 754.493 18.4326 754.275 18.1045C754.061 17.7764 753.953 17.389 753.953 16.9424V16.9287C753.953 16.4912 754.058 16.1175 754.268 15.8076C754.478 15.4932 754.783 15.2471 755.184 15.0693C755.585 14.8916 756.07 14.7868 756.64 14.7549L759.347 14.5908V15.541L756.784 15.7051C756.223 15.737 755.813 15.8532 755.553 16.0537C755.298 16.2542 755.17 16.5368 755.17 16.9014V16.915C755.17 17.2887 755.311 17.5804 755.594 17.79C755.877 17.9951 756.232 18.0977 756.66 18.0977C757.066 18.0977 757.426 18.0179 757.741 17.8584C758.055 17.6943 758.301 17.4733 758.479 17.1953C758.661 16.9173 758.752 16.6029 758.752 16.252V13.9551C758.752 13.4993 758.613 13.153 758.335 12.916C758.062 12.6745 757.649 12.5537 757.098 12.5537C756.656 12.5537 756.294 12.6335 756.011 12.793C755.728 12.9479 755.539 13.1689 755.444 13.4561L755.437 13.4766H754.247L754.254 13.4355C754.318 13.0482 754.478 12.7109 754.733 12.4238C754.992 12.1322 755.327 11.9066 755.738 11.7471C756.148 11.583 756.615 11.501 757.139 11.501C757.741 11.501 758.249 11.599 758.663 11.7949C759.083 11.9909 759.399 12.2734 759.614 12.6426C759.832 13.0072 759.942 13.4447 759.942 13.9551V19H758.752V17.9131H758.643C758.488 18.1729 758.299 18.3939 758.075 18.5762C757.857 18.7585 757.608 18.8975 757.33 18.9932C757.052 19.0843 756.747 19.1299 756.414 19.1299ZM765.626 19.1299C765.284 19.1299 764.967 19.0775 764.675 18.9727C764.384 18.8678 764.124 18.7197 763.896 18.5283C763.668 18.3324 763.479 18.0977 763.329 17.8242H763.219V19H762.03V8.70508H763.219V12.793H763.329C763.465 12.5286 763.648 12.3008 763.876 12.1094C764.108 11.918 764.372 11.7699 764.669 11.665C764.969 11.5557 765.288 11.501 765.626 11.501C766.25 11.501 766.792 11.6582 767.253 11.9727C767.717 12.2871 768.077 12.7292 768.333 13.2988C768.588 13.8685 768.715 14.5384 768.715 15.3086V15.3223C768.715 16.0879 768.588 16.7578 768.333 17.332C768.077 17.9017 767.717 18.3438 767.253 18.6582C766.792 18.9727 766.25 19.1299 765.626 19.1299ZM765.352 18.0771C765.803 18.0771 766.188 17.9678 766.507 17.749C766.826 17.5257 767.07 17.209 767.239 16.7988C767.412 16.3841 767.499 15.8919 767.499 15.3223V15.3086C767.499 14.7344 767.412 14.2422 767.239 13.832C767.07 13.4219 766.826 13.1074 766.507 12.8887C766.188 12.6654 765.803 12.5537 765.352 12.5537C764.906 12.5537 764.52 12.6654 764.197 12.8887C763.873 13.112 763.625 13.4287 763.452 13.8389C763.279 14.249 763.192 14.7389 763.192 15.3086V15.3223C763.192 15.8874 763.279 16.3773 763.452 16.792C763.625 17.2021 763.873 17.5189 764.197 17.7422C764.52 17.9655 764.906 18.0771 765.352 18.0771ZM774.259 19V8.70508H775.448V19H774.259ZM779.601 19.1299C779.136 19.1299 778.717 19.041 778.343 18.8633C777.974 18.6855 777.68 18.4326 777.461 18.1045C777.247 17.7764 777.14 17.389 777.14 16.9424V16.9287C777.14 16.4912 777.245 16.1175 777.455 15.8076C777.664 15.4932 777.97 15.2471 778.371 15.0693C778.772 14.8916 779.257 14.7868 779.827 14.7549L782.534 14.5908V15.541L779.97 15.7051C779.41 15.737 779 15.8532 778.74 16.0537C778.485 16.2542 778.357 16.5368 778.357 16.9014V16.915C778.357 17.2887 778.498 17.5804 778.781 17.79C779.063 17.9951 779.419 18.0977 779.847 18.0977C780.253 18.0977 780.613 18.0179 780.927 17.8584C781.242 17.6943 781.488 17.4733 781.666 17.1953C781.848 16.9173 781.939 16.6029 781.939 16.252V13.9551C781.939 13.4993 781.8 13.153 781.522 12.916C781.249 12.6745 780.836 12.5537 780.285 12.5537C779.843 12.5537 779.48 12.6335 779.198 12.793C778.915 12.9479 778.726 13.1689 778.63 13.4561L778.624 13.4766H777.434L777.441 13.4355C777.505 13.0482 777.664 12.7109 777.919 12.4238C778.179 12.1322 778.514 11.9066 778.924 11.7471C779.334 11.583 779.802 11.501 780.326 11.501C780.927 11.501 781.435 11.599 781.85 11.7949C782.269 11.9909 782.586 12.2734 782.8 12.6426C783.019 13.0072 783.128 13.4447 783.128 13.9551V19H781.939V17.9131H781.83C781.675 18.1729 781.486 18.3939 781.262 18.5762C781.043 18.7585 780.795 18.8975 780.517 18.9932C780.239 19.0843 779.934 19.1299 779.601 19.1299ZM788.812 19.1299C788.471 19.1299 788.154 19.0775 787.862 18.9727C787.57 18.8678 787.311 18.7197 787.083 18.5283C786.855 18.3324 786.666 18.0977 786.515 17.8242H786.406V19H785.217V8.70508H786.406V12.793H786.515C786.652 12.5286 786.834 12.3008 787.062 12.1094C787.295 11.918 787.559 11.7699 787.855 11.665C788.156 11.5557 788.475 11.501 788.812 11.501C789.437 11.501 789.979 11.6582 790.439 11.9727C790.904 12.2871 791.264 12.7292 791.519 13.2988C791.775 13.8685 791.902 14.5384 791.902 15.3086V15.3223C791.902 16.0879 791.775 16.7578 791.519 17.332C791.264 17.9017 790.904 18.3438 790.439 18.6582C789.979 18.9727 789.437 19.1299 788.812 19.1299ZM788.539 18.0771C788.99 18.0771 789.375 17.9678 789.694 17.749C790.013 17.5257 790.257 17.209 790.426 16.7988C790.599 16.3841 790.685 15.8919 790.685 15.3223V15.3086C790.685 14.7344 790.599 14.2422 790.426 13.832C790.257 13.4219 790.013 13.1074 789.694 12.8887C789.375 12.6654 788.99 12.5537 788.539 12.5537C788.092 12.5537 787.707 12.6654 787.384 12.8887C787.06 13.112 786.812 13.4287 786.639 13.8389C786.465 14.249 786.379 14.7389 786.379 15.3086V15.3223C786.379 15.8874 786.465 16.3773 786.639 16.792C786.812 17.2021 787.06 17.5189 787.384 17.7422C787.707 17.9655 788.092 18.0771 788.539 18.0771ZM796.602 19.1299C795.9 19.1299 795.296 18.9749 794.79 18.665C794.289 18.3551 793.901 17.9176 793.628 17.3525C793.359 16.7829 793.225 16.113 793.225 15.3428V15.3359C793.225 14.5749 793.359 13.9072 793.628 13.333C793.901 12.7588 794.287 12.3099 794.783 11.9863C795.28 11.6628 795.861 11.501 796.526 11.501C797.196 11.501 797.771 11.6559 798.249 11.9658C798.732 12.2757 799.101 12.7087 799.357 13.2646C799.616 13.8161 799.746 14.4587 799.746 15.1924V15.6572H793.84V14.707H799.138L798.55 15.5752V15.1035C798.55 14.5247 798.463 14.0485 798.29 13.6748C798.117 13.3011 797.878 13.0231 797.572 12.8408C797.267 12.654 796.916 12.5605 796.52 12.5605C796.123 12.5605 795.768 12.6585 795.453 12.8545C795.143 13.0459 794.897 13.3307 794.715 13.709C794.533 14.0872 794.442 14.5521 794.442 15.1035V15.5752C794.442 16.0993 794.53 16.5482 794.708 16.9219C794.886 17.291 795.139 17.5758 795.467 17.7764C795.795 17.9723 796.182 18.0703 796.629 18.0703C796.962 18.0703 797.251 18.0247 797.497 17.9336C797.743 17.8424 797.946 17.7262 798.106 17.585C798.265 17.4437 798.377 17.3001 798.441 17.1543L798.468 17.0928H799.657L799.644 17.1475C799.58 17.3981 799.466 17.6419 799.302 17.8789C799.142 18.1113 798.935 18.3232 798.68 18.5146C798.425 18.7015 798.122 18.8519 797.771 18.9658C797.424 19.0752 797.035 19.1299 796.602 19.1299ZM801.506 19V8.70508H802.696V19H801.506Z" fill="#474747"/>
</svg>
