<svg width="24" height="24" viewBox="0 0 24 24" fill="none" xmlns="http://www.w3.org/2000/svg">
<path d="M12 19C12.8284 19 13.5 18.3284 13.5 17.5C13.5 16.6716 12.8284 16 12 16C11.1716 16 10.5 16.6716 10.5 17.5C10.5 18.3284 11.1716 19 12 19Z" fill="#383739"/>
<path d="M12 14V9" stroke="#383739" stroke-width="2" stroke-linecap="round"/>
<path fill-rule="evenodd" clip-rule="evenodd" d="M13.4409 3.80782C13.171 3.31332 12.6121 3 12 3C11.3879 3 10.829 3.31332 10.5591 3.80782L2.13868 19.2464C1.93261 19.6237 1.95752 20.0699 2.20457 20.4267C2.45161 20.7835 2.88579 21.0003 3.3529 21H20.6471C21.1142 21.0003 21.5484 20.7835 21.7954 20.4267C22.0425 20.0699 22.0674 19.6237 21.8613 19.2464L13.4409 3.80782Z" stroke="#383739" stroke-width="2" stroke-linecap="round" stroke-linejoin="round"/>
</svg>
