<svg width="26" height="24" viewBox="0 0 26 24" fill="none" xmlns="http://www.w3.org/2000/svg">
<path fill-rule="evenodd" clip-rule="evenodd" d="M12.9984 5.00125C8.69861 4.93073 4.25163 7.85219 1.45586 10.8442C0.848047 11.5002 0.848047 12.4967 1.45586 13.1527C4.19083 16.0814 8.62501 19.0703 12.9984 18.9987C17.3718 19.0703 21.807 16.0814 24.5441 13.1527C25.152 12.4967 25.152 11.5002 24.5441 10.8442C21.7452 7.85219 17.2982 4.93073 12.9984 5.00125Z" stroke="#383739" stroke-width="2" stroke-linecap="round" stroke-linejoin="round"/>
<path fill-rule="evenodd" clip-rule="evenodd" d="M16.9985 12.0005C16.9979 14.1482 15.2068 15.8889 12.9978 15.8885C10.7887 15.8881 8.99822 14.1469 8.99841 11.9991C8.99861 9.85139 10.7894 8.11041 12.9985 8.11041C14.0596 8.11014 15.0774 8.51993 15.8276 9.24955C16.5779 9.97918 16.9991 10.9688 16.9985 12.0005V12.0005Z" stroke="#383739" stroke-width="2" stroke-linecap="round" stroke-linejoin="round"/>
</svg>
