<svg width="24" height="24" viewBox="0 0 24 24" fill="none" xmlns="http://www.w3.org/2000/svg">
<path fill-rule="evenodd" clip-rule="evenodd" d="M14.7022 21.2243L14.7129 21.2305C16.6578 22.4686 19.2018 22.1896 20.8321 20.5595L21.5201 19.8716C22.16 19.231 22.16 18.1933 21.5201 17.5527L18.6214 14.6562C17.9808 14.0164 16.9429 14.0164 16.3023 14.6562C15.995 14.9638 15.578 15.1367 15.1431 15.1367C14.7083 15.1367 14.2913 14.9638 13.984 14.6562L9.34572 10.0176C8.70587 9.37705 8.70587 8.33934 9.34572 7.69877C9.65338 7.39152 9.82626 6.97458 9.82626 6.53979C9.82626 6.10501 9.65338 5.68807 9.34572 5.38082L6.4479 2.47982C5.80725 1.84006 4.7694 1.84006 4.12875 2.47982L3.44074 3.16774C1.81075 4.7979 1.53142 7.34114 2.76873 9.28614L2.77585 9.29681C5.95226 13.9983 10.0008 18.0473 14.7022 21.2243Z" stroke="#383739" stroke-width="2" stroke-linecap="round" stroke-linejoin="round"/>
</svg>
