<svg width="24" height="24" viewBox="0 0 24 24" fill="none" xmlns="http://www.w3.org/2000/svg">
<path fill-rule="evenodd" clip-rule="evenodd" d="M20.8888 8.66667H15.3332V3.11111C15.3332 2.49746 14.8357 2 14.2221 2H9.77766C9.16401 2 8.66654 2.49746 8.66654 3.11111V8.66667H3.11099C2.49734 8.66667 1.99988 9.16413 1.99988 9.77778V14.2222C1.99988 14.8359 2.49734 15.3333 3.11099 15.3333H8.66654V20.8889C8.66654 21.5025 9.16401 22 9.77766 22H14.2221C14.8357 22 15.3332 21.5025 15.3332 20.8889V15.3333H20.8888C21.5024 15.3333 21.9999 14.8359 21.9999 14.2222V9.77778C21.9999 9.16413 21.5024 8.66667 20.8888 8.66667Z" stroke="#383739" stroke-width="2" stroke-linecap="round" stroke-linejoin="round"/>
</svg>
