<svg width="24" height="24" viewBox="0 0 24 24" fill="none" xmlns="http://www.w3.org/2000/svg">
<path d="M6 19H15.6204C16.3298 19.0001 16.9358 18.5015 17.0545 17.8202L19.6116 3.17886C19.7308 2.49789 20.3367 1.99985 21.0458 2H22" stroke="#383739" stroke-width="2" stroke-linecap="round" stroke-linejoin="round"/>
<path d="M7.5 24C8.32843 24 9 23.3284 9 22.5C9 21.6716 8.32843 21 7.5 21C6.67157 21 6 21.6716 6 22.5C6 23.3284 6.67157 24 7.5 24Z" fill="#383739"/>
<path d="M15.5 24C16.3284 24 17 23.3284 17 22.5C17 21.6716 16.3284 21 15.5 21C14.6716 21 14 21.6716 14 22.5C14 23.3284 14.6716 24 15.5 24Z" fill="#383739"/>
<path d="M17.5528 14H6.14254C4.84155 13.9999 3.70753 13.1677 3.39183 11.9813L2.0212 6.82808C1.9682 6.62893 2.01581 6.41794 2.15025 6.25617C2.28469 6.09439 2.49095 5.99989 2.70935 6H19" stroke="#383739" stroke-width="2" stroke-linecap="round" stroke-linejoin="round"/>
</svg>
