<svg width="283" height="20" viewBox="0 0 283 20" fill="none" xmlns="http://www.w3.org/2000/svg">
<path d="M3.07812 14V5.54492H4.13281V13.0508H8.21094V14H3.07812ZM12.0547 14.1113C11.4531 14.1113 10.9355 13.9785 10.502 13.7129C10.0723 13.4473 9.74023 13.0723 9.50586 12.5879C9.27539 12.0996 9.16016 11.5254 9.16016 10.8652V10.8594C9.16016 10.207 9.27539 9.63477 9.50586 9.14258C9.74023 8.65039 10.0703 8.26562 10.4961 7.98828C10.9219 7.71094 11.4199 7.57227 11.9902 7.57227C12.5645 7.57227 13.0566 7.70508 13.4668 7.9707C13.8809 8.23633 14.1973 8.60742 14.416 9.08398C14.6387 9.55664 14.75 10.1074 14.75 10.7363V11.1348H9.6875V10.3203H14.2285L13.7246 11.0645V10.6602C13.7246 10.1641 13.6504 9.75586 13.502 9.43555C13.3535 9.11523 13.1484 8.87695 12.8867 8.7207C12.625 8.56055 12.3242 8.48047 11.9844 8.48047C11.6445 8.48047 11.3398 8.56445 11.0703 8.73242C10.8047 8.89648 10.5938 9.14062 10.4375 9.46484C10.2812 9.78906 10.2031 10.1875 10.2031 10.6602V11.0645C10.2031 11.5137 10.2793 11.8984 10.4316 12.2188C10.584 12.5352 10.8008 12.7793 11.082 12.9512C11.3633 13.1191 11.6953 13.2031 12.0781 13.2031C12.3633 13.2031 12.6113 13.1641 12.8223 13.0859C13.0332 13.0078 13.207 12.9082 13.3438 12.7871C13.4805 12.666 13.5762 12.543 13.6309 12.418L13.6543 12.3652H14.6738L14.6621 12.4121C14.6074 12.627 14.5098 12.8359 14.3691 13.0391C14.2324 13.2383 14.0547 13.4199 13.8359 13.584C13.6172 13.7441 13.3574 13.873 13.0566 13.9707C12.7598 14.0645 12.4258 14.1113 12.0547 14.1113ZM18.002 14L15.6641 7.68359H16.7422L18.4707 12.8867H18.5645L20.293 7.68359H21.3711L19.0332 14H18.002ZM25.0625 14.1113C24.4609 14.1113 23.9434 13.9785 23.5098 13.7129C23.0801 13.4473 22.748 13.0723 22.5137 12.5879C22.2832 12.0996 22.168 11.5254 22.168 10.8652V10.8594C22.168 10.207 22.2832 9.63477 22.5137 9.14258C22.748 8.65039 23.0781 8.26562 23.5039 7.98828C23.9297 7.71094 24.4277 7.57227 24.998 7.57227C25.5723 7.57227 26.0645 7.70508 26.4746 7.9707C26.8887 8.23633 27.2051 8.60742 27.4238 9.08398C27.6465 9.55664 27.7578 10.1074 27.7578 10.7363V11.1348H22.6953V10.3203H27.2363L26.7324 11.0645V10.6602C26.7324 10.1641 26.6582 9.75586 26.5098 9.43555C26.3613 9.11523 26.1562 8.87695 25.8945 8.7207C25.6328 8.56055 25.332 8.48047 24.9922 8.48047C24.6523 8.48047 24.3477 8.56445 24.0781 8.73242C23.8125 8.89648 23.6016 9.14062 23.4453 9.46484C23.2891 9.78906 23.2109 10.1875 23.2109 10.6602V11.0645C23.2109 11.5137 23.2871 11.8984 23.4395 12.2188C23.5918 12.5352 23.8086 12.7793 24.0898 12.9512C24.3711 13.1191 24.7031 13.2031 25.0859 13.2031C25.3711 13.2031 25.6191 13.1641 25.8301 13.0859C26.041 13.0078 26.2148 12.9082 26.3516 12.7871C26.4883 12.666 26.584 12.543 26.6387 12.418L26.6621 12.3652H27.6816L27.6699 12.4121C27.6152 12.627 27.5176 12.8359 27.377 13.0391C27.2402 13.2383 27.0625 13.4199 26.8438 13.584C26.625 13.7441 26.3652 13.873 26.0645 13.9707C25.7676 14.0645 25.4336 14.1113 25.0625 14.1113ZM29.3984 14V5.17578H30.418V14H29.3984Z" fill="#474747"/>
<path d="M46.1464 6.64645C46.3417 6.45118 46.6583 6.45118 46.8536 6.64645L49.8536 9.64645C50.0488 9.84171 50.0488 10.1583 49.8536 10.3536L46.8536 13.3536C46.6583 13.5488 46.3417 13.5488 46.1464 13.3536C45.9512 13.1583 45.9512 12.8417 46.1464 12.6464L48.7929 10L46.1464 7.35355C45.9512 7.15829 45.9512 6.84171 46.1464 6.64645Z" fill="#919191"/>
<path d="M65.0781 14V5.54492H66.1328V13.0508H70.2109V14H65.0781ZM74.0547 14.1113C73.4531 14.1113 72.9355 13.9785 72.502 13.7129C72.0723 13.4473 71.7402 13.0723 71.5059 12.5879C71.2754 12.0996 71.1602 11.5254 71.1602 10.8652V10.8594C71.1602 10.207 71.2754 9.63477 71.5059 9.14258C71.7402 8.65039 72.0703 8.26562 72.4961 7.98828C72.9219 7.71094 73.4199 7.57227 73.9902 7.57227C74.5645 7.57227 75.0566 7.70508 75.4668 7.9707C75.8809 8.23633 76.1973 8.60742 76.416 9.08398C76.6387 9.55664 76.75 10.1074 76.75 10.7363V11.1348H71.6875V10.3203H76.2285L75.7246 11.0645V10.6602C75.7246 10.1641 75.6504 9.75586 75.502 9.43555C75.3535 9.11523 75.1484 8.87695 74.8867 8.7207C74.625 8.56055 74.3242 8.48047 73.9844 8.48047C73.6445 8.48047 73.3398 8.56445 73.0703 8.73242C72.8047 8.89648 72.5938 9.14062 72.4375 9.46484C72.2812 9.78906 72.2031 10.1875 72.2031 10.6602V11.0645C72.2031 11.5137 72.2793 11.8984 72.4316 12.2188C72.584 12.5352 72.8008 12.7793 73.082 12.9512C73.3633 13.1191 73.6953 13.2031 74.0781 13.2031C74.3633 13.2031 74.6113 13.1641 74.8223 13.0859C75.0332 13.0078 75.207 12.9082 75.3438 12.7871C75.4805 12.666 75.5762 12.543 75.6309 12.418L75.6543 12.3652H76.6738L76.6621 12.4121C76.6074 12.627 76.5098 12.8359 76.3691 13.0391C76.2324 13.2383 76.0547 13.4199 75.8359 13.584C75.6172 13.7441 75.3574 13.873 75.0566 13.9707C74.7598 14.0645 74.4258 14.1113 74.0547 14.1113ZM80.002 14L77.6641 7.68359H78.7422L80.4707 12.8867H80.5645L82.293 7.68359H83.3711L81.0332 14H80.002ZM87.0625 14.1113C86.4609 14.1113 85.9434 13.9785 85.5098 13.7129C85.0801 13.4473 84.748 13.0723 84.5137 12.5879C84.2832 12.0996 84.168 11.5254 84.168 10.8652V10.8594C84.168 10.207 84.2832 9.63477 84.5137 9.14258C84.748 8.65039 85.0781 8.26562 85.5039 7.98828C85.9297 7.71094 86.4277 7.57227 86.998 7.57227C87.5723 7.57227 88.0645 7.70508 88.4746 7.9707C88.8887 8.23633 89.2051 8.60742 89.4238 9.08398C89.6465 9.55664 89.7578 10.1074 89.7578 10.7363V11.1348H84.6953V10.3203H89.2363L88.7324 11.0645V10.6602C88.7324 10.1641 88.6582 9.75586 88.5098 9.43555C88.3613 9.11523 88.1562 8.87695 87.8945 8.7207C87.6328 8.56055 87.332 8.48047 86.9922 8.48047C86.6523 8.48047 86.3477 8.56445 86.0781 8.73242C85.8125 8.89648 85.6016 9.14062 85.4453 9.46484C85.2891 9.78906 85.2109 10.1875 85.2109 10.6602V11.0645C85.2109 11.5137 85.2871 11.8984 85.4395 12.2188C85.5918 12.5352 85.8086 12.7793 86.0898 12.9512C86.3711 13.1191 86.7031 13.2031 87.0859 13.2031C87.3711 13.2031 87.6191 13.1641 87.8301 13.0859C88.041 13.0078 88.2148 12.9082 88.3516 12.7871C88.4883 12.666 88.584 12.543 88.6387 12.418L88.6621 12.3652H89.6816L89.6699 12.4121C89.6152 12.627 89.5176 12.8359 89.377 13.0391C89.2402 13.2383 89.0625 13.4199 88.8438 13.584C88.625 13.7441 88.3652 13.873 88.0645 13.9707C87.7676 14.0645 87.4336 14.1113 87.0625 14.1113ZM91.3984 14V5.17578H92.418V14H91.3984Z" fill="#474747"/>
<path d="M108.146 6.64645C108.342 6.45118 108.658 6.45118 108.854 6.64645L111.854 9.64645C112.049 9.84171 112.049 10.1583 111.854 10.3536L108.854 13.3536C108.658 13.5488 108.342 13.5488 108.146 13.3536C107.951 13.1583 107.951 12.8417 108.146 12.6464L110.793 10L108.146 7.35355C107.951 7.15829 107.951 6.84171 108.146 6.64645Z" fill="#919191"/>
<path d="M127.078 14V5.54492H128.133V13.0508H132.211V14H127.078ZM136.055 14.1113C135.453 14.1113 134.936 13.9785 134.502 13.7129C134.072 13.4473 133.74 13.0723 133.506 12.5879C133.275 12.0996 133.16 11.5254 133.16 10.8652V10.8594C133.16 10.207 133.275 9.63477 133.506 9.14258C133.74 8.65039 134.07 8.26562 134.496 7.98828C134.922 7.71094 135.42 7.57227 135.99 7.57227C136.564 7.57227 137.057 7.70508 137.467 7.9707C137.881 8.23633 138.197 8.60742 138.416 9.08398C138.639 9.55664 138.75 10.1074 138.75 10.7363V11.1348H133.688V10.3203H138.229L137.725 11.0645V10.6602C137.725 10.1641 137.65 9.75586 137.502 9.43555C137.354 9.11523 137.148 8.87695 136.887 8.7207C136.625 8.56055 136.324 8.48047 135.984 8.48047C135.645 8.48047 135.34 8.56445 135.07 8.73242C134.805 8.89648 134.594 9.14062 134.438 9.46484C134.281 9.78906 134.203 10.1875 134.203 10.6602V11.0645C134.203 11.5137 134.279 11.8984 134.432 12.2188C134.584 12.5352 134.801 12.7793 135.082 12.9512C135.363 13.1191 135.695 13.2031 136.078 13.2031C136.363 13.2031 136.611 13.1641 136.822 13.0859C137.033 13.0078 137.207 12.9082 137.344 12.7871C137.48 12.666 137.576 12.543 137.631 12.418L137.654 12.3652H138.674L138.662 12.4121C138.607 12.627 138.51 12.8359 138.369 13.0391C138.232 13.2383 138.055 13.4199 137.836 13.584C137.617 13.7441 137.357 13.873 137.057 13.9707C136.76 14.0645 136.426 14.1113 136.055 14.1113ZM142.002 14L139.664 7.68359H140.742L142.471 12.8867H142.564L144.293 7.68359H145.371L143.033 14H142.002ZM149.062 14.1113C148.461 14.1113 147.943 13.9785 147.51 13.7129C147.08 13.4473 146.748 13.0723 146.514 12.5879C146.283 12.0996 146.168 11.5254 146.168 10.8652V10.8594C146.168 10.207 146.283 9.63477 146.514 9.14258C146.748 8.65039 147.078 8.26562 147.504 7.98828C147.93 7.71094 148.428 7.57227 148.998 7.57227C149.572 7.57227 150.064 7.70508 150.475 7.9707C150.889 8.23633 151.205 8.60742 151.424 9.08398C151.646 9.55664 151.758 10.1074 151.758 10.7363V11.1348H146.695V10.3203H151.236L150.732 11.0645V10.6602C150.732 10.1641 150.658 9.75586 150.51 9.43555C150.361 9.11523 150.156 8.87695 149.895 8.7207C149.633 8.56055 149.332 8.48047 148.992 8.48047C148.652 8.48047 148.348 8.56445 148.078 8.73242C147.812 8.89648 147.602 9.14062 147.445 9.46484C147.289 9.78906 147.211 10.1875 147.211 10.6602V11.0645C147.211 11.5137 147.287 11.8984 147.439 12.2188C147.592 12.5352 147.809 12.7793 148.09 12.9512C148.371 13.1191 148.703 13.2031 149.086 13.2031C149.371 13.2031 149.619 13.1641 149.83 13.0859C150.041 13.0078 150.215 12.9082 150.352 12.7871C150.488 12.666 150.584 12.543 150.639 12.418L150.662 12.3652H151.682L151.67 12.4121C151.615 12.627 151.518 12.8359 151.377 13.0391C151.24 13.2383 151.062 13.4199 150.844 13.584C150.625 13.7441 150.365 13.873 150.064 13.9707C149.768 14.0645 149.434 14.1113 149.062 14.1113ZM153.398 14V5.17578H154.418V14H153.398Z" fill="#474747"/>
<path d="M170.146 6.64645C170.342 6.45118 170.658 6.45118 170.854 6.64645L173.854 9.64645C174.049 9.84171 174.049 10.1583 173.854 10.3536L170.854 13.3536C170.658 13.5488 170.342 13.5488 170.146 13.3536C169.951 13.1583 169.951 12.8417 170.146 12.6464L172.793 10L170.146 7.35355C169.951 7.15829 169.951 6.84171 170.146 6.64645Z" fill="#919191"/>
<path d="M189.078 14V5.54492H190.133V13.0508H194.211V14H189.078ZM198.055 14.1113C197.453 14.1113 196.936 13.9785 196.502 13.7129C196.072 13.4473 195.74 13.0723 195.506 12.5879C195.275 12.0996 195.16 11.5254 195.16 10.8652V10.8594C195.16 10.207 195.275 9.63477 195.506 9.14258C195.74 8.65039 196.07 8.26562 196.496 7.98828C196.922 7.71094 197.42 7.57227 197.99 7.57227C198.564 7.57227 199.057 7.70508 199.467 7.9707C199.881 8.23633 200.197 8.60742 200.416 9.08398C200.639 9.55664 200.75 10.1074 200.75 10.7363V11.1348H195.688V10.3203H200.229L199.725 11.0645V10.6602C199.725 10.1641 199.65 9.75586 199.502 9.43555C199.354 9.11523 199.148 8.87695 198.887 8.7207C198.625 8.56055 198.324 8.48047 197.984 8.48047C197.645 8.48047 197.34 8.56445 197.07 8.73242C196.805 8.89648 196.594 9.14062 196.438 9.46484C196.281 9.78906 196.203 10.1875 196.203 10.6602V11.0645C196.203 11.5137 196.279 11.8984 196.432 12.2188C196.584 12.5352 196.801 12.7793 197.082 12.9512C197.363 13.1191 197.695 13.2031 198.078 13.2031C198.363 13.2031 198.611 13.1641 198.822 13.0859C199.033 13.0078 199.207 12.9082 199.344 12.7871C199.48 12.666 199.576 12.543 199.631 12.418L199.654 12.3652H200.674L200.662 12.4121C200.607 12.627 200.51 12.8359 200.369 13.0391C200.232 13.2383 200.055 13.4199 199.836 13.584C199.617 13.7441 199.357 13.873 199.057 13.9707C198.76 14.0645 198.426 14.1113 198.055 14.1113ZM204.002 14L201.664 7.68359H202.742L204.471 12.8867H204.564L206.293 7.68359H207.371L205.033 14H204.002ZM211.062 14.1113C210.461 14.1113 209.943 13.9785 209.51 13.7129C209.08 13.4473 208.748 13.0723 208.514 12.5879C208.283 12.0996 208.168 11.5254 208.168 10.8652V10.8594C208.168 10.207 208.283 9.63477 208.514 9.14258C208.748 8.65039 209.078 8.26562 209.504 7.98828C209.93 7.71094 210.428 7.57227 210.998 7.57227C211.572 7.57227 212.064 7.70508 212.475 7.9707C212.889 8.23633 213.205 8.60742 213.424 9.08398C213.646 9.55664 213.758 10.1074 213.758 10.7363V11.1348H208.695V10.3203H213.236L212.732 11.0645V10.6602C212.732 10.1641 212.658 9.75586 212.51 9.43555C212.361 9.11523 212.156 8.87695 211.895 8.7207C211.633 8.56055 211.332 8.48047 210.992 8.48047C210.652 8.48047 210.348 8.56445 210.078 8.73242C209.812 8.89648 209.602 9.14062 209.445 9.46484C209.289 9.78906 209.211 10.1875 209.211 10.6602V11.0645C209.211 11.5137 209.287 11.8984 209.439 12.2188C209.592 12.5352 209.809 12.7793 210.09 12.9512C210.371 13.1191 210.703 13.2031 211.086 13.2031C211.371 13.2031 211.619 13.1641 211.83 13.0859C212.041 13.0078 212.215 12.9082 212.352 12.7871C212.488 12.666 212.584 12.543 212.639 12.418L212.662 12.3652H213.682L213.67 12.4121C213.615 12.627 213.518 12.8359 213.377 13.0391C213.24 13.2383 213.062 13.4199 212.844 13.584C212.625 13.7441 212.365 13.873 212.064 13.9707C211.768 14.0645 211.434 14.1113 211.062 14.1113ZM215.398 14V5.17578H216.418V14H215.398Z" fill="#474747"/>
<path d="M232.146 6.64645C232.342 6.45118 232.658 6.45118 232.854 6.64645L235.854 9.64645C236.049 9.84171 236.049 10.1583 235.854 10.3536L232.854 13.3536C232.658 13.5488 232.342 13.5488 232.146 13.3536C231.951 13.1583 231.951 12.8417 232.146 12.6464L234.793 10L232.146 7.35355C231.951 7.15829 231.951 6.84171 232.146 6.64645Z" fill="#919191"/>
<path d="M251.061 14V5.54492H252.355V12.8809H256.328V14H251.061ZM260.213 14.123C259.596 14.123 259.064 13.9902 258.619 13.7246C258.174 13.4551 257.83 13.0742 257.588 12.582C257.35 12.0898 257.23 11.5078 257.23 10.8359V10.8301C257.23 10.1699 257.35 9.5918 257.588 9.0957C257.83 8.59961 258.17 8.21289 258.607 7.93555C259.045 7.6582 259.559 7.51953 260.148 7.51953C260.742 7.51953 261.252 7.65234 261.678 7.91797C262.104 8.18359 262.432 8.55664 262.662 9.03711C262.893 9.51367 263.008 10.0703 263.008 10.707V11.1523H257.869V10.25H262.387L261.777 11.082V10.584C261.777 10.127 261.709 9.74805 261.572 9.44727C261.436 9.14648 261.244 8.92188 260.998 8.77344C260.756 8.625 260.475 8.55078 260.154 8.55078C259.838 8.55078 259.555 8.62891 259.305 8.78516C259.055 8.94141 258.857 9.17188 258.713 9.47656C258.568 9.77734 258.496 10.1465 258.496 10.584V11.0879C258.496 11.5059 258.566 11.8652 258.707 12.166C258.848 12.4629 259.049 12.6914 259.311 12.8516C259.572 13.0078 259.883 13.0859 260.242 13.0859C260.516 13.0859 260.752 13.0488 260.951 12.9746C261.15 12.8965 261.312 12.8008 261.438 12.6875C261.566 12.5742 261.656 12.4609 261.707 12.3477L261.725 12.3008H262.938L262.926 12.3535C262.871 12.5645 262.775 12.7734 262.639 12.9805C262.502 13.1875 262.322 13.377 262.1 13.5488C261.877 13.7207 261.607 13.8594 261.291 13.9648C260.979 14.0703 260.619 14.123 260.213 14.123ZM266.137 14L263.828 7.63672H265.158L266.758 12.7227H266.857L268.451 7.63672H269.77L267.467 14H266.137ZM273.467 14.123C272.85 14.123 272.318 13.9902 271.873 13.7246C271.428 13.4551 271.084 13.0742 270.842 12.582C270.604 12.0898 270.484 11.5078 270.484 10.8359V10.8301C270.484 10.1699 270.604 9.5918 270.842 9.0957C271.084 8.59961 271.424 8.21289 271.861 7.93555C272.299 7.6582 272.812 7.51953 273.402 7.51953C273.996 7.51953 274.506 7.65234 274.932 7.91797C275.357 8.18359 275.686 8.55664 275.916 9.03711C276.146 9.51367 276.262 10.0703 276.262 10.707V11.1523H271.123V10.25H275.641L275.031 11.082V10.584C275.031 10.127 274.963 9.74805 274.826 9.44727C274.689 9.14648 274.498 8.92188 274.252 8.77344C274.01 8.625 273.729 8.55078 273.408 8.55078C273.092 8.55078 272.809 8.62891 272.559 8.78516C272.309 8.94141 272.111 9.17188 271.967 9.47656C271.822 9.77734 271.75 10.1465 271.75 10.584V11.0879C271.75 11.5059 271.82 11.8652 271.961 12.166C272.102 12.4629 272.303 12.6914 272.564 12.8516C272.826 13.0078 273.137 13.0859 273.496 13.0859C273.77 13.0859 274.006 13.0488 274.205 12.9746C274.404 12.8965 274.566 12.8008 274.691 12.6875C274.82 12.5742 274.91 12.4609 274.961 12.3477L274.979 12.3008H276.191L276.18 12.3535C276.125 12.5645 276.029 12.7734 275.893 12.9805C275.756 13.1875 275.576 13.377 275.354 13.5488C275.131 13.7207 274.861 13.8594 274.545 13.9648C274.232 14.0703 273.873 14.123 273.467 14.123ZM277.838 14V5.14648H279.086V14H277.838Z" fill="#1A1A1A"/>
</svg>
